<svg id="Layer_1" data-name="Layer 1" xmlns="http://www.w3.org/2000/svg" viewBox="0 0 86 65.27"><defs><style>.cls-1{fill:#00b189;}.cls-2{fill:#fff;}</style></defs><title>addMediaIcon</title><path class="cls-1" d="M59.43,4.63h-16L38.86,0H25.14L20.57,4.63h-16A4.62,4.62,0,0,0,0,9.27V46.33A4.61,4.61,0,0,0,4.57,51H59.43A4.61,4.61,0,0,0,64,46.33V9.27A4.61,4.61,0,0,0,59.43,4.63ZM32,44A16.22,16.22,0,1,1,48,27.8,16.12,16.12,0,0,1,32,44ZM59.43,13.9H54.86V9.27h4.57Z"/><path class="cls-1" d="M67,63.77A17.72,17.72,0,1,1,84.5,46.06,17.62,17.62,0,0,1,67,63.77Z"/><path class="cls-2" d="M67,29.84A16.22,16.22,0,1,1,51,46.06,16.11,16.11,0,0,1,67,29.84M60.9,47.13h5v5.11h2.12V47.13h5V45h-5V39.87H65.94V45h-5v2.14M67,26.84A19.22,19.22,0,1,0,86,46.06,19.13,19.13,0,0,0,67,26.84Z"/></svg>