<svg id="Layer_1" data-name="Layer 1" xmlns="http://www.w3.org/2000/svg" viewBox="0 0 613 286"><defs><style>.cls-1{fill:#125c6d;}.cls-2{fill:#fff;}.cls-10,.cls-3,.cls-9{fill:#8abe58;}.cls-3,.cls-4{opacity:0.6;}.cls-4,.cls-7,.cls-8{fill:#15aa85;}.cls-5{fill:#0d6f7f;}.cls-10,.cls-6,.cls-8{opacity:0.5;}.cls-11{fill:#00b189;}.cls-12{fill:#0e4f5e;}</style></defs><title>burst-theme-mobile</title><circle class="cls-1" cx="259.5" cy="113.5" r="27.5"/><path class="cls-2" d="M268.05,123.48a1.23,1.23,0,0,1-.89-.37,1.26,1.26,0,0,1,0-1.78,12.16,12.16,0,0,0,0-17.19,1.26,1.26,0,0,1,1.78-1.78,14.69,14.69,0,0,1,0,20.75A1.25,1.25,0,0,1,268.05,123.48Zm-4.47-2.37a1.26,1.26,0,0,1-.89-2.15,8.82,8.82,0,0,0,0-12.45,1.26,1.26,0,0,1,1.78-1.77,11.32,11.32,0,0,1,0,16A1.25,1.25,0,0,1,263.58,121.11Zm-4.47-2.37a1.26,1.26,0,0,1-.88-2.15,5.46,5.46,0,0,0,0-7.7,1.26,1.26,0,0,1,1.77-1.78,8,8,0,0,1,0,11.26A1.26,1.26,0,0,1,259.11,118.74Zm-3.86-17.35c.67-.68,1.22-.45,1.22.5v21.69c0,1-.55,1.18-1.22.51l-6.33-6.32h-4.19V107.71h4.19Z"/><circle class="cls-3" cx="551" cy="141" r="20"/><path class="cls-2" d="M557.22,148.26a.92.92,0,0,1-.65-1.56,8.84,8.84,0,0,0,0-12.5.92.92,0,0,1,0-1.3.91.91,0,0,1,1.29,0,10.66,10.66,0,0,1,0,15.09A.9.9,0,0,1,557.22,148.26ZM554,146.53a.94.94,0,0,1-.65-.26.92.92,0,0,1,0-1.3,6.4,6.4,0,0,0,0-9.05.91.91,0,1,1,1.29-1.29,8.21,8.21,0,0,1,0,11.64A.92.92,0,0,1,554,146.53Zm-3.25-1.72a.92.92,0,0,1-.65-1.56,4,4,0,0,0,0-5.61.92.92,0,0,1,1.3-1.29,5.81,5.81,0,0,1,0,8.19A.92.92,0,0,1,550.72,144.81Zm-2.81-12.62c.48-.49.88-.32.88.37v15.77c0,.69-.4.86-.88.37l-4.6-4.6h-3v-7.31h3Z"/><circle class="cls-3" cx="70" cy="226" r="27.5"/><path class="cls-2" d="M68.75,217.61a4.92,4.92,0,1,0,4.91-4.92A4.91,4.91,0,0,0,68.75,217.61Zm-11.8,0a4.92,4.92,0,1,0,4.91-4.92A4.91,4.91,0,0,0,57,217.61Zm23.59,9.83v-2.95a2,2,0,0,0-2-2H58.91a2,2,0,0,0-2,2v9.83a2,2,0,0,0,2,2H78.58a2,2,0,0,0,2-2v-2.95l7.87,4.91V222.52Zm-3.93,4.91H60.88v-5.9H76.61Z"/><circle class="cls-1" cx="477.5" cy="210.5" r="27.5"/><path class="cls-2" d="M464.17,199.75v21.93h27V199.75ZM489.47,220H465.86V201.44h23.61Zm-6.74-14.34a2.53,2.53,0,1,0,2.53-2.53A2.53,2.53,0,0,0,482.73,205.65Zm5.06,12.65H467.55l5.06-13.49,6.74,8.43,3.38-2.53Z"/><circle class="cls-4" cx="406.5" cy="136.5" r="14.5"/><path class="cls-2" d="M410.22,134.53l-6.19-6.2a8.65,8.65,0,0,1,6.19.13Zm1.09,5.26V129a8.72,8.72,0,0,1,3.72,10.8Zm-7.61,1.09h10.8a8.71,8.71,0,0,1-7.54,4.35,8.57,8.57,0,0,1-3.26-.63Zm1.8-9.25-7,7a8.48,8.48,0,0,1-.25-2.09,8.7,8.7,0,0,1,4.51-7.63Zm-2.89,4.72v7.72A8.75,8.75,0,0,1,399,140Z"/><circle class="cls-3" cx="336.5" cy="46.5" r="13.5"/><path class="cls-2" d="M343.71,45.48a4.14,4.14,0,0,0-7.21-2.78,4.14,4.14,0,1,0-5.85,5.85h0l4.51,4.51c.45.45.9.9,1.35.9s.9-.45,1.35-.9l4.51-4.51h0A4.15,4.15,0,0,0,343.71,45.48Zm-2.57,1.74-4.56,4.56-.08.08-.08-.08-4.56-4.56a2.34,2.34,0,1,1,3.31-3.31l1.33,1.47,1.33-1.47a2.34,2.34,0,1,1,3.31,3.31Z"/><circle class="cls-4" cx="78" cy="116" r="20"/><path class="cls-2" d="M73.54,108.7l14.83-4v15.5c0,1.86-2.11,3.37-4.72,3.37s-4.71-1.51-4.71-3.37,2.11-3.37,4.71-3.37a6.31,6.31,0,0,1,2,.33v-7l-9.44,2.58v10.11c0,1.86-2.11,3.37-4.72,3.37s-4.72-1.51-4.72-3.37,2.12-3.37,4.72-3.37a6.2,6.2,0,0,1,2,.32V108.7Z"/><circle class="cls-3" cx="195.5" cy="48.5" r="14.5"/><path class="cls-2" d="M199.22,46.53,193,40.33a8.65,8.65,0,0,1,6.19.13Zm1.09,5.26V41A8.72,8.72,0,0,1,204,51.79Zm-7.61,1.09h10.8A8.71,8.71,0,0,1,196,57.23a8.57,8.57,0,0,1-3.26-.63Zm1.8-9.25-7,7a8.48,8.48,0,0,1-.25-2.09,8.7,8.7,0,0,1,4.51-7.63Zm-2.89,4.72v7.72A8.75,8.75,0,0,1,188,52Z"/><circle class="cls-5" cx="455.5" cy="61.5" r="22.5"/><path class="cls-2" d="M453.42,55.11a3.85,3.85,0,1,0,3.85-3.85A3.85,3.85,0,0,0,453.42,55.11Zm-9.24,0A3.85,3.85,0,1,0,448,51.26,3.85,3.85,0,0,0,444.18,55.11Zm18.48,7.7V60.5A1.54,1.54,0,0,0,461.12,59h-15.4a1.54,1.54,0,0,0-1.54,1.54v7.7a1.54,1.54,0,0,0,1.54,1.54h15.4a1.54,1.54,0,0,0,1.54-1.54V65.89l6.16,3.85V59Zm-3.08,3.85H447.26V62h12.32Z"/><g class="cls-6"><circle class="cls-7" cx="144" cy="149" r="10"/><circle class="cls-8" cx="304.5" cy="156.5" r="3.5"/><circle class="cls-9" cx="397.5" cy="55.5" r="5.5"/><circle class="cls-9" cx="418.5" cy="210.5" r="2.5"/><circle class="cls-9" cx="127.5" cy="47.5" r="8.5"/><circle class="cls-10" cx="251" cy="148" r="4"/><circle class="cls-1" cx="474.5" cy="112.5" r="7.5"/><circle class="cls-1" cx="29" cy="264" r="5"/><circle class="cls-1" cx="130" cy="101" r="4"/><circle class="cls-1" cx="209" cy="148" r="3"/><circle class="cls-1" cx="255" cy="43" r="10"/><circle class="cls-1" cx="403" cy="162" r="6"/><circle class="cls-1" cx="123.5" cy="227.5" r="5.5"/><circle class="cls-9" cx="503.5" cy="75.5" r="3.5"/><circle class="cls-11" cx="530.5" cy="232.5" r="3.5"/><circle class="cls-11" cx="599.5" cy="281.5" r="4.5"/><circle class="cls-11" cx="329" cy="56" r="4"/><circle class="cls-11" cx="76.5" cy="273.5" r="4.5"/><circle class="cls-9" cx="6" cy="100" r="3"/><circle class="cls-9" cx="602.5" cy="32.5" r="5.5"/><circle class="cls-11" cx="601" cy="99" r="4"/><circle class="cls-11" cx="609" cy="191" r="4"/><circle class="cls-11" cx="551" cy="37" r="4"/><circle class="cls-11" cx="96" cy="11" r="4"/><circle class="cls-11" cx="57" cy="92" r="1"/><circle class="cls-11" cx="12.5" cy="175.5" r="6.5"/><circle class="cls-12" cx="584" cy="151" r="3"/><circle class="cls-12" cx="65" cy="29" r="8"/><circle class="cls-12" cx="32.5" cy="134.5" r="5.5"/><circle class="cls-12" cx="4.5" cy="218.5" r="4.5"/><circle class="cls-12" cx="194" cy="94" r="7"/><circle class="cls-12" cx="583.5" cy="74.5" r="6.5"/><circle class="cls-12" cx="580" cy="203" r="7"/><circle class="cls-12" cx="350" cy="109" r="7"/><circle class="cls-12" cx="397.5" cy="5.5" r="5.5"/><circle class="cls-12" cx="500.5" cy="10.5" r="6.5"/></g></svg>