<svg id="Layer_1" data-name="Layer 1" xmlns="http://www.w3.org/2000/svg" viewBox="0 0 56 56"><defs><style>.cls-1{fill:#3b5998;}.cls-2{fill:none;}</style></defs><title>fbIcon</title><path class="cls-1" d="M36.53,28h-4.4a.77.77,0,0,0-.77.76V48.62a.76.76,0,0,1-.76.77H24.12a.77.77,0,0,1-.77-.77V28.76a.76.76,0,0,0-.76-.76H18.77a.77.77,0,0,1-.77-.77V21.41a.76.76,0,0,1,.76-.77l3.83,0a.76.76,0,0,0,.76-.76l0-3.57c0-6,1.63-9.68,8.73-9.68H37.2a.76.76,0,0,1,.76.77v5.84a.77.77,0,0,1-.76.77H34.26c-2.74,0-2.9,1-2.9,3v2.92a.77.77,0,0,0,.77.76h5a.77.77,0,0,1,.76.85l-.62,5.84A.77.77,0,0,1,36.53,28Z"/><rect class="cls-2" width="56" height="56" rx="0.77" ry="0.77"/></svg>