<svg id="Layer_1" data-name="Layer 1" xmlns="http://www.w3.org/2000/svg" viewBox="0 0 55 55"><defs><style>.cls-1{fill:#8abe58;opacity:0.6;}.cls-2{fill:#fff;}</style></defs><title>ico-camera-mobile</title><circle class="cls-1" cx="27.5" cy="27.5" r="27.5"/><path class="cls-2" d="M26.25,19.11a4.92,4.92,0,1,0,4.92-4.92A4.92,4.92,0,0,0,26.25,19.11Zm-11.8,0a4.92,4.92,0,1,0,4.92-4.92A4.92,4.92,0,0,0,14.45,19.11ZM38,28.94V26a2,2,0,0,0-2-2H16.41a2,2,0,0,0-2,2v9.83a2,2,0,0,0,2,2H36.08a2,2,0,0,0,2-2V32.87l7.87,4.92V24Zm-3.93,4.92H18.38V28H34.11Z"/></svg>