<?xml version="1.0" encoding="utf-8"?>
<!-- Generator: Adobe Illustrator 21.0.2, SVG Export Plug-In . SVG Version: 6.00 Build 0)  -->
<svg version="1.1" id="Слой_1" xmlns="http://www.w3.org/2000/svg" xmlns:xlink="http://www.w3.org/1999/xlink" x="0px" y="0px"
	 viewBox="0 0 28 25.2" style="enable-background:new 0 0 28 25.2;" xml:space="preserve">
<style type="text/css">
	.st0{fill:#FFFFFF;}
	.st1{fill:#00B894;}
	.st2{fill:#0095B1;}
	.st3{fill:#006367;}
	.st4{fill:#B9D833;}
	.st5{fill:#008136;}
	.st6{fill:#005928;}
	.st7{fill:#83CC58;}
	.st8{fill:#008F3D;}
	.st9{fill:#004A1F;}
	.st10{fill:#52C241;}
	.st11{fill:#00863C;}
	.st12{fill:#00662E;}
	.st13{fill:#00461D;}
	.st14{opacity:0.2;}
	.st15{opacity:0.4;}
	.st16{fill:#00AC84;}
	.st17{fill:#A5CC2E;}
</style>
<g id="New_Symbol_8">
</g>
<g>
	<path class="" d="M26.7,8.7l-7.4-7.4C19.1,1.1,18.9,1,18.6,1c-0.3,0-0.5,0.1-0.7,0.3c-0.2,0.2-0.3,0.4-0.3,0.7l0,3.7l-3.3,0
		c-6.9,0-11.1,2-12.7,5.9C1.3,12.8,1,14.4,1,16.3c0,1.6,0.6,3.8,1.8,6.5c0,0.1,0.1,0.2,0.2,0.3c0.1,0.2,0.1,0.3,0.2,0.4
		c0.1,0.1,0.1,0.2,0.2,0.3c0.1,0.2,0.3,0.2,0.4,0.2c0.1,0,0.3,0,0.3-0.1c0.1-0.1,0.1-0.2,0.1-0.4c0-0.1,0-0.2,0-0.4
		c0-0.2,0-0.3,0-0.3c0-0.7-0.1-1.3-0.1-1.8c0-1,0.1-1.9,0.3-2.6c0.2-0.8,0.4-1.4,0.7-2c0.3-0.6,0.7-1.1,1.2-1.5c0.5-0.4,1-0.7,1.5-1
		c0.5-0.3,1.2-0.5,1.9-0.6c0.7-0.2,1.5-0.3,2.2-0.3c0.7-0.1,1.6-0.1,2.5-0.1l3.3,0l0,3.7c0,0.3,0.1,0.5,0.3,0.7
		c0.2,0.2,0.4,0.3,0.7,0.3c0.3,0,0.5-0.1,0.7-0.3l7.4-7.4C26.9,9.8,27,9.6,27,9.4C27,9.1,26.9,8.9,26.7,8.7L26.7,8.7z"/>
	<path class="" d="M3.8,25.2c-0.5,0-0.9-0.2-1.2-0.7c-0.1-0.1-0.2-0.3-0.3-0.5l-0.4-0.8C0.6,20.4,0,18.1,0,16.3
		c0-2,0.3-3.8,0.8-5.2c1.7-4.3,6.3-6.5,13.6-6.5l2.2,0l0-2.7c0-0.5,0.2-1,0.6-1.4c0.7-0.7,2-0.7,2.7,0L27.4,8
		C27.8,8.4,28,8.8,28,9.4s-0.2,1-0.6,1.4L20,18.1c-0.8,0.7-2,0.7-2.7,0c-0.4-0.4-0.6-0.8-0.6-1.4l0-2.7l-2.3,0c-0.9,0-1.8,0-2.5,0.1
		c-0.7,0.1-1.4,0.2-2.1,0.3c-0.7,0.1-1.2,0.3-1.7,0.5c-0.5,0.2-0.9,0.5-1.3,0.9c-0.4,0.3-0.7,0.7-0.9,1.2c-0.3,0.5-0.5,1.1-0.6,1.8
		c-0.2,0.7-0.2,1.5-0.2,2.4c0,0.5,0,1.1,0.1,1.7c0,0.1,0,0.2,0,0.3c0,0.2,0,0.4,0,0.5c0,0.4-0.1,0.7-0.4,1C4.6,25,4.2,25.2,3.8,25.2
		z M4.2,23.4C4.2,23.4,4.2,23.4,4.2,23.4C4.2,23.4,4.2,23.4,4.2,23.4z M18.7,2.1l0,4.5l-4.2,0C8,6.6,4.1,8.4,2.7,11.9
		C2.2,13,2,14.5,2,16.3c0,1.2,0.4,2.7,1.1,4.6c0-0.9,0.1-1.8,0.3-2.6c0.2-0.9,0.5-1.6,0.8-2.3c0.4-0.7,0.8-1.3,1.4-1.8
		c0.5-0.5,1.1-0.9,1.8-1.2c0.6-0.3,1.3-0.5,2.2-0.7c0.8-0.2,1.6-0.3,2.4-0.3c0.8-0.1,1.6-0.1,2.6-0.1l4.3,0l0,4.6L26,9.4L18.7,2.1z"
		/>
</g>
</svg>
