<?xml version="1.0" encoding="utf-8"?>
<!-- Generator: Adobe Illustrator 20.1.0, SVG Export Plug-In . SVG Version: 6.00 Build 0)  -->
<svg version="1.1" id="Layer_1" xmlns="http://www.w3.org/2000/svg" xmlns:xlink="http://www.w3.org/1999/xlink" x="0px" y="0px"
	 viewBox="0 0 26.4 26.1" style="enable-background:new 0 0 26.4 26.1;" xml:space="preserve">
<style type="text/css">
	.st0{fill:#00B288;}
</style>
<path class="st0" d="M25.1,7.3c-2.3-0.3-4.7-0.6-7.2-0.7l4.2-4.2l-1.6-1.6l-5.8,5.8c-0.5,0-1.1,0-1.6,0l0,0L6.5,0L4.9,1.5l5,5
	C6.8,6.6,3.8,6.9,1.1,7.3c-0.7,2.8-1.1,5.8-1.1,9s0.4,6.3,1.1,9c3.7,0.5,7.8,0.8,12.1,0.8c4.3,0,8.4-0.3,12.1-0.8
	c0.7-2.8,1.1-5.8,1.1-9S25.8,10.1,25.1,7.3z M22.1,22.4c-2.8,0.4-5.8,0.5-9,0.5s-6.3-0.2-9-0.5c-0.5-1.8-0.8-3.9-0.8-6
	s0.3-4.2,0.8-6c2.8-0.4,5.8-0.5,9-0.5s6.3,0.2,9,0.5c0.5,1.8,0.8,3.9,0.8,6S22.7,20.5,22.1,22.4z"/>
</svg>
