<?xml version="1.0" encoding="utf-8"?>
<!-- Generator: Adobe Illustrator 20.1.0, SVG Export Plug-In . SVG Version: 6.00 Build 0)  -->
<svg version="1.1" id="Layer_1" xmlns="http://www.w3.org/2000/svg" xmlns:xlink="http://www.w3.org/1999/xlink" x="0px" y="0px"
	 viewBox="0 0 25.7 21.2" style="enable-background:new 0 0 25.7 21.2;" xml:space="preserve">
<style type="text/css">
	.st0{opacity:0.6;fill:#FFFFFF;enable-background:new    ;}
</style>
<path class="st0" d="M21,20.1c-0.3,0-0.6-0.1-0.8-0.3c-0.4-0.4-0.4-1.2,0-1.6c2.1-2.1,3.2-4.8,3.2-7.7c0-2.9-1.1-5.7-3.2-7.7
	c-0.4-0.4-0.4-1.2,0-1.6s1.2-0.4,1.6,0c2.5,2.5,3.9,5.8,3.9,9.3s-1.4,6.8-3.9,9.3C21.6,20,21.3,20.1,21,20.1z M17,18
	c-0.3,0-0.6-0.1-0.8-0.3c-0.4-0.4-0.4-1.2,0-1.6c3.1-3.1,3.1-8.1,0-11.2c-0.4-0.4-0.4-1.2,0-1.6s1.2-0.4,1.6,0c1.9,1.9,3,4.5,3,7.2
	s-1.1,5.3-3,7.2C17.6,17.9,17.3,18,17,18z M13,15.9c-0.3,0-0.6-0.1-0.8-0.3c-0.4-0.4-0.4-1.2,0-1.6c1.9-1.9,1.9-5,0-6.9
	c-0.4-0.4-0.4-1.2,0-1.6s1.2-0.4,1.6,0c2.8,2.8,2.8,7.3,0,10.1C13.6,15.8,13.3,15.9,13,15.9z M9.5,0.3c0.6-0.6,1.1-0.4,1.1,0.5v19.5
	c0,0.9-0.5,1.1-1.1,0.5l-5.7-5.7H0v-9h3.8L9.5,0.3z"/>
</svg>
