<svg id="Layer_1" data-name="Layer 1" xmlns="http://www.w3.org/2000/svg" viewBox="0 0 250 249.74"><defs><style>.cls-1{fill:#fff;stroke:#fff;stroke-miterlimit:10;stroke-width:3px;}.cls-2{fill:#17ab86;}.cls-3{fill:#33869d;}.cls-4{fill:#0d5759;}.cls-5{fill:#b0cb3f;}.cls-6{fill:#347539;}.cls-7{fill:#124e26;}.cls-8{fill:#8abe57;}.cls-9{fill:#1a8140;}.cls-10{fill:#143f1f;}.cls-11{fill:#6bb345;}.cls-12{fill:#177a3e;}.cls-13{fill:#20592c;}.cls-14{fill:#193d1e;}</style></defs><title>ico-burst-bg-white-logo</title><ellipse class="cls-1" cx="125" cy="124.87" rx="123.5" ry="123.37"/><path class="cls-2" d="M125,66.92l14.43-14.41a39.28,39.28,0,0,1,19-10.51,39.44,39.44,0,0,0-66.94,0,39.22,39.22,0,0,1,19,10.51Z"/><path class="cls-2" d="M125,178.52l-14.43,14.41a39.17,39.17,0,0,1-19,10.51,39.44,39.44,0,0,0,66.94,0,39.24,39.24,0,0,1-19-10.51Z"/><path class="cls-3" d="M85.51,83.28V62.88a39.18,39.18,0,0,1,6-20.88A39.39,39.39,0,0,0,44.21,89.29a39.3,39.3,0,0,1,20.89-6Z"/><path class="cls-3" d="M164.5,162.18v20.38a39.24,39.24,0,0,1-6,20.88,39.4,39.4,0,0,0,47.33-47.28,39.29,39.29,0,0,1-20.9,6Z"/><path class="cls-4" d="M85.51,83.28h23.13L125,66.92,110.57,52.51A39.22,39.22,0,0,0,91.53,42a39.18,39.18,0,0,0-6,20.88Z"/><path class="cls-4" d="M164.5,162.18H141.36L125,178.52l14.43,14.41a39.24,39.24,0,0,0,19,10.51,39.24,39.24,0,0,0,6-20.88Z"/><path class="cls-5" d="M224.4,122.72A39.38,39.38,0,0,0,205.8,89.29a39.2,39.2,0,0,1-10.52,19l-14.43,14.41,14.43,14.41a39.17,39.17,0,0,1,10.52,19A39.38,39.38,0,0,0,224.4,122.72Z"/><path class="cls-6" d="M180.86,122.72,164.5,139.06v23.11H184.9a39.29,39.29,0,0,0,20.9-6,39.17,39.17,0,0,0-10.52-19Z"/><path class="cls-7" d="M153.36,150.16c-.13.13-.25.28-.38.41s-.53.48-.79.73c.2-.2.43-.37.63-.57l-11.46,11.45H164.5V139.06L153,150.52C153.14,150.4,153.24,150.27,153.36,150.16Z"/><path class="cls-5" d="M69.15,122.72,54.72,108.31a39.23,39.23,0,0,1-10.51-19,39.35,39.35,0,0,0,0,66.87,39.16,39.16,0,0,1,10.51-19Z"/><path class="cls-6" d="M69.15,122.72l16.36-16.35V83.28H65.1a39.3,39.3,0,0,0-20.89,6,39.23,39.23,0,0,0,10.51,19Z"/><path class="cls-7" d="M97,94.88h0l.09-.09h0l0,0,11.54-11.53H85.51v23.1L97.05,94.85Z"/><path class="cls-8" d="M164.5,83.28H184.9a39.34,39.34,0,0,1,20.9,6A39.4,39.4,0,0,0,158.47,42a39.16,39.16,0,0,1,6,20.88Z"/><path class="cls-9" d="M125,66.92l16.37,16.35H164.5V62.88a39.16,39.16,0,0,0-6-20.88,39.28,39.28,0,0,0-19,10.51Z"/><path class="cls-10" d="M123.78,83.33c.41,0,.81-.06,1.22-.06s.83,0,1.25.06c-.35,0-.69-.05-1-.05h16.15L125,66.92,108.63,83.28h16.15C124.45,83.28,124.12,83.32,123.78,83.33Z"/><path class="cls-11" d="M164.5,83.28v23.1l16.36,16.35,14.43-14.41a39.2,39.2,0,0,0,10.52-19,39.34,39.34,0,0,0-20.9-6Z"/><polygon class="cls-12" points="164.5 83.28 141.37 83.28 164.5 106.38 164.5 83.28"/><polygon class="cls-13" points="164.5 122.72 164.5 139.06 180.86 122.72 164.5 106.38 164.5 122.72"/><path class="cls-14" d="M126.25,83.33c1,0,2,.07,2.94.16.32,0,.62.1.93.14,1,.13,2,.27,3,.47.27.06.53.15.8.21,1,.23,2,.47,3,.77l.67.25c1,.33,2,.68,2.94,1.09.21.09.4.2.61.29,1,.43,1.92.87,2.84,1.38.18.1.34.21.52.32.92.52,1.84,1.06,2.72,1.66l.52.39c.85.6,1.7,1.22,2.5,1.88.18.15.34.32.52.48.78.67,1.55,1.35,2.27,2.07.19.19.35.39.53.58.69.72,1.37,1.45,2,2.22.2.23.36.49.55.73.59.75,1.17,1.51,1.71,2.3.21.31.38.64.58,1,.48.75,1,1.51,1.39,2.29.21.38.37.79.57,1.18.37.75.76,1.49,1.09,2.26.2.47.34,1,.52,1.44.28.72.57,1.44.8,2.18.19.59.31,1.22.47,1.83s.36,1.28.5,1.94.23,1.48.34,2.23c.08.56.2,1.11.26,1.69a39.12,39.12,0,0,1,.2,4V106.38l-23.13-23.1H125.22C125.57,83.28,125.9,83.32,126.25,83.33Z"/><path class="cls-14" d="M164.29,126.74h0c0,.51-.16,1-.23,1.51h0c-.11.79-.2,1.59-.36,2.37h0c-.11.58-.29,1.13-.43,1.69-.09.35-.17.7-.27,1s-.16.68-.26,1v0c-.19.63-.45,1.23-.67,1.85-.14.39-.27.79-.43,1.17-.07.18-.13.38-.2.56l0,0c-.28.65-.61,1.28-.92,1.92s-.46,1-.73,1.52c-.37.67-.79,1.32-1.19,2-.26.43-.5.87-.78,1.28-.47.69-1,1.34-1.49,2-.22.28-.42.59-.64.87l-.09.11,0,.05c-.56.68-1.18,1.33-1.79,2l-.37.41c-.11.11-.21.25-.33.36l11.47-11.46V122.72A39,39,0,0,1,164.29,126.74Z"/><path class="cls-14" d="M97.13,94.77c.08-.08.17-.15.25-.23.32-.32.67-.61,1-.92s.44-.41.67-.61.49-.46.75-.68l.08-.07,0,0c.14-.11.28-.2.42-.31.38-.31.79-.59,1.18-.88l.59-.44c.25-.17.48-.37.73-.55l.09-.07,0,0c.19-.13.39-.22.57-.35.42-.27.86-.52,1.28-.77l.56-.34c.23-.13.46-.29.69-.42l.1-.06,0,0c.31-.17.64-.3,1-.46L108.4,87l.38-.18c.25-.11.49-.25.74-.35l.12-.05h0c.37-.16.77-.28,1.15-.43s.86-.32,1.29-.47l.26-.09c.26-.09.5-.2.76-.28l.13,0h0c.45-.14.92-.23,1.38-.35s.94-.26,1.42-.37c.28-.07.55-.15.83-.21l.14,0h0c.69-.14,1.4-.21,2.09-.32l.72-.11c.32,0,.63-.11,1-.15l.15,0h0c.92-.09,1.87-.11,2.81-.14.34,0,.67-.05,1-.05H108.63L97.1,94.8Z"/><path class="cls-8" d="M85.51,162.18H65.1a39.25,39.25,0,0,1-20.89-6,39.33,39.33,0,0,0,47.33,47.28,39.16,39.16,0,0,1-6-20.88Z"/><path class="cls-9" d="M125,178.52l-16.36-16.34H85.51v20.38a39.16,39.16,0,0,0,6,20.88,39.17,39.17,0,0,0,19-10.51Z"/><path class="cls-10" d="M126.21,162.12c-.4,0-.8.06-1.21.06s-.8,0-1.2-.06c.33,0,.65,0,1,.05H108.64L125,178.52l16.36-16.34H125.22C125.55,162.17,125.88,162.13,126.21,162.12Z"/><path class="cls-14" d="M152.19,151.29c-.42.4-.85.79-1.28,1.17-.25.21-.47.44-.72.65l-.15.12c-.21.17-.44.32-.66.49-.5.39-1,.78-1.53,1.14-.23.17-.45.35-.69.52l-.16.11c-.23.16-.49.29-.73.44-.55.35-1.1.69-1.67,1-.23.14-.45.29-.68.41l-.16.09c-.29.15-.6.28-.89.43-.55.28-1.11.56-1.68.81-.23.1-.46.23-.7.34l-.17.07c-.36.15-.74.26-1.1.4-.54.21-1.08.41-1.62.59-.25.08-.48.19-.73.26l-.16.06c-.46.14-.95.23-1.42.36l-1.38.35c-.27.07-.54.15-.81.21l-.17,0c-.63.13-1.28.19-1.92.29l-.89.14c-.31,0-.62.11-.93.14l-.16,0c-.93.09-1.87.11-2.82.14-.33,0-.66,0-1,.05h16.14l11.46-11.45C152.62,150.92,152.4,151.1,152.19,151.29Z"/><path class="cls-11" d="M85.51,162.18V139.07L69.15,122.72,54.72,137.14a39.16,39.16,0,0,0-10.51,19,39.25,39.25,0,0,0,20.89,6Z"/><path class="cls-12" d="M98.09,151.55l-.3-.27c-.22-.21-.46-.39-.67-.61l-.09-.09c-.27-.27-.51-.57-.77-.85.23.25.45.52.69.77L85.51,139.07v23.11h23.13L97.2,150.75C97.48,151,97.8,151.28,98.09,151.55Z"/><path class="cls-13" d="M85.55,123.53c0-.27,0-.53,0-.8s0-.54,0-.81c0,.22,0,.43,0,.65V106.38L69.15,122.72l16.36,16.35V122.89C85.51,123.1,85.54,123.31,85.55,123.53Z"/><path class="cls-14" d="M85.55,121.91c0-1.08.05-2.16.16-3.21h0a1,1,0,0,1,0-.13c0-.19.07-.37.09-.56s.1-.65.15-1c.11-.74.19-1.5.34-2.23h0l0-.12c0-.16.09-.32.12-.48.09-.41.21-.82.32-1.23.16-.64.3-1.3.5-1.93v0l0-.11c0-.14.1-.27.15-.41.16-.49.34-1,.52-1.43s.38-1.11.6-1.65v0a.94.94,0,0,1,0-.11c.06-.14.14-.28.2-.42.21-.47.45-.94.68-1.4s.45-1,.72-1.5v0l.05-.09c.09-.17.2-.33.3-.5.26-.46.55-.92.84-1.38s.49-.85.77-1.26l0,0,.06-.09c.12-.17.26-.33.38-.51.34-.48.69-.94,1.05-1.41s.49-.68.75-1l0,0h0l.07-.08c.15-.19.32-.34.48-.52.4-.46.81-.91,1.23-1.35.26-.27.49-.56.74-.81l0,0L85.51,106.38v16.19C85.51,122.34,85.54,122.13,85.55,121.91Z"/><path class="cls-14" d="M96.26,149.73l-.2-.21c-.33-.35-.67-.71-1-1.08-.16-.19-.34-.37-.51-.56l-.08-.09-.05-.07c-.11-.13-.2-.28-.31-.41s-.4-.55-.61-.82-.56-.74-.83-1.11c-.13-.18-.27-.34-.39-.52l-.07-.1,0-.07-.07-.12c-.3-.45-.56-.93-.85-1.39s-.45-.71-.66-1.09c-.09-.16-.2-.31-.28-.46l-.07-.11c-.32-.59-.58-1.21-.87-1.82-.17-.36-.37-.72-.52-1.09-.07-.14-.14-.28-.2-.42l-.05-.11c-.27-.64-.49-1.32-.73-2-.13-.37-.28-.74-.4-1.11,0-.14-.11-.27-.15-.41l0-.13v0l0-.07c-.21-.68-.36-1.38-.53-2.07-.08-.33-.19-.66-.26-1,0-.16-.09-.31-.12-.47l0-.13v0c-.08-.38-.11-.78-.18-1.17s-.13-.8-.18-1.2-.09-.54-.13-.81-.07-.37-.09-.56a1.36,1.36,0,0,1,0-.14h0c-.1-1.06-.14-2.13-.16-3.21,0-.21,0-.43,0-.64v16.18L96.95,150.5C96.71,150.25,96.5,150,96.26,149.73Z"/><path class="cls-14" d="M123.8,162.12c-.94,0-1.89,0-2.82-.14h0l-.16,0c-.32,0-.63-.1-1-.14l-.7-.11h0c-.68-.1-1.38-.17-2-.31h0l-.15,0c-.29-.06-.57-.15-.85-.22l-.91-.23-.59-.15c-.41-.11-.83-.19-1.23-.32h0l-.14-.05c-.28-.09-.54-.2-.81-.29l-1.07-.39-.54-.2c-.33-.13-.68-.23-1-.37l0,0-.13-.06c-.28-.12-.55-.27-.84-.4s-.74-.35-1.1-.53l-.44-.21c-.29-.15-.6-.27-.88-.43l-.06,0-.12-.07c-.29-.16-.56-.35-.85-.52l-1.13-.69-.23-.14c-.28-.17-.57-.33-.85-.51l-.07,0-.11-.08c-.31-.21-.6-.45-.9-.67s-.72-.53-1.07-.8-.61-.43-.9-.67l-.06,0-.1-.08c-.33-.27-.62-.58-.95-.86l-.78-.72c-.29-.27-.61-.52-.89-.8l11.44,11.43h16.14C124.45,162.17,124.13,162.13,123.8,162.12Z"/></svg>