<?xml version="1.0" encoding="utf-8"?>
<!-- Generator: Adobe Illustrator 20.1.0, SVG Export Plug-In . SVG Version: 6.00 Build 0)  -->
<svg version="1.1" id="Layer_1" xmlns="http://www.w3.org/2000/svg" xmlns:xlink="http://www.w3.org/1999/xlink" x="0px" y="0px"
	 viewBox="0 0 19.2 19.2" style="enable-background:new 0 0 19.2 19.2;" xml:space="preserve">
<style type="text/css">
	.st0{fill:#8ABE58;}
</style>
<path class="st0" d="M13.2,7.4L6.4,0.6C7.4,0.2,8.5,0,9.6,0c1.3,0,2.5,0.2,3.6,0.7L13.2,7.4L13.2,7.4z M14.4,13.2V1.3
	c2.9,1.7,4.8,4.8,4.8,8.3c0,1.3-0.2,2.5-0.7,3.6H14.4z M6,14.4h11.9c-1.7,2.9-4.8,4.8-8.3,4.8c-1.3,0-2.5-0.2-3.6-0.7V14.4z M8,4.2
	l-7.7,7.7C0.1,11.2,0,10.4,0,9.6C0,6,2,2.8,5,1.2L8,4.2z M4.8,9.4v8.5c-1.8-1-3.2-2.6-4-4.5L4.8,9.4z"/>
</svg>
