<?xml version="1.0" encoding="utf-8"?>
<!-- Generator: Adobe Illustrator 20.1.0, SVG Export Plug-In . SVG Version: 6.00 Build 0)  -->
<svg version="1.1" id="Layer_1" xmlns="http://www.w3.org/2000/svg" xmlns:xlink="http://www.w3.org/1999/xlink" x="0px" y="0px"
	 viewBox="0 0 21.4 24.4" style="enable-background:new 0 0 21.4 24.4;" xml:space="preserve">
<style type="text/css">
	.st0{opacity:0.6;fill:#FFFFFF;enable-background:new    ;}
</style>
<path class="st0" d="M13.8,3.5v3.2c0.9,0.4,1.7,0.9,2.3,1.6c1.4,1.4,2.2,3.4,2.2,5.4s-0.8,4-2.2,5.4c-1.4,1.4-3.4,2.2-5.4,2.2
	s-4-0.8-5.4-2.2c-1.4-1.4-2.2-3.4-2.2-5.4s0.8-4,2.2-5.4C6,7.6,6.8,7.1,7.6,6.7V3.5C3.2,4.8,0,8.9,0,13.7c0,5.9,4.8,10.7,10.7,10.7
	c5.9,0,10.7-4.8,10.7-10.7C21.4,8.9,18.2,4.8,13.8,3.5z M9.2,0h3.1v12.2H9.2V0z"/>
<path class="st0" d="M13.8,3.5v3.2c0.9,0.4,1.7,0.9,2.3,1.6c1.4,1.4,2.2,3.4,2.2,5.4s-0.8,4-2.2,5.4c-1.4,1.4-3.4,2.2-5.4,2.2
	s-4-0.8-5.4-2.2c-1.4-1.4-2.2-3.4-2.2-5.4s0.8-4,2.2-5.4C6,7.6,6.8,7.1,7.6,6.7V3.5C3.2,4.8,0,8.9,0,13.7c0,5.9,4.8,10.7,10.7,10.7
	c5.9,0,10.7-4.8,10.7-10.7C21.4,8.9,18.2,4.8,13.8,3.5z M9.2,0h3.1v12.2H9.2V0z"/>
</svg>
