<?xml version="1.0" encoding="utf-8"?>
<!-- Generator: Adobe Illustrator 20.1.0, SVG Export Plug-In . SVG Version: 6.00 Build 0)  -->
<svg version="1.1" id="Layer_1" xmlns="http://www.w3.org/2000/svg" xmlns:xlink="http://www.w3.org/1999/xlink" x="0px" y="0px"
	 viewBox="0 0 19 15.5" style="enable-background:new 0 0 19 15.5;" xml:space="preserve">
<style type="text/css">
	.st0{opacity:0.6;fill:#FFFFFF;enable-background:new    ;}
</style>
<path class="st0" d="M19,1.8c-0.7,0.3-1.5,0.5-2.3,0.6c0.8-0.5,1.4-1.3,1.7-2.2c-0.8,0.5-1.6,0.8-2.5,1C15.2,0.4,14.2,0,13,0
	c-2.2,0-3.9,1.8-3.9,3.9c0,0.3,0,0.6,0.1,0.9C5.9,4.6,3,3.1,1.1,0.7C0.8,1.3,0.6,2,0.6,2.7c0,1.4,0.7,2.6,1.8,3.3
	C1.8,6,1.1,5.8,0.6,5.5l0,0C0.6,7.4,2,9,3.8,9.4c-0.3,0.1-0.7,0.1-1,0.1s-0.5,0-0.7-0.1c0.5,1.6,2,2.7,3.7,2.7
	c-1.3,1.1-3,1.7-4.9,1.7c-0.3,0-0.6,0-0.9-0.1c1.7,1.1,3.8,1.8,6,1.8c7.2,0,11.2-6,11.2-11.2c0-0.2,0-0.3,0-0.5
	C17.8,3.3,18.5,2.6,19,1.8z"/>
</svg>
