<svg id="Layer_1" data-name="Layer 1" xmlns="http://www.w3.org/2000/svg" viewBox="0 0 40 40"><defs><style>.cls-1{fill:#8abe58;opacity:0.6;}.cls-2{fill:#fff;}</style></defs><title>ico-colud-frame-mobile</title><circle class="cls-1" cx="20" cy="20" r="20"/><path class="cls-2" d="M26.22,27.26a.91.91,0,0,1-.65-1.56,8.84,8.84,0,0,0,0-12.5.91.91,0,0,1,1.29-1.29,10.67,10.67,0,0,1,0,15.09A.91.91,0,0,1,26.22,27.26ZM23,25.53A.91.91,0,0,1,22.32,24a6.41,6.41,0,0,0,0-9.05.91.91,0,0,1,1.29-1.29,8.23,8.23,0,0,1,0,11.64A.91.91,0,0,1,23,25.53Zm-3.25-1.72a.91.91,0,0,1-.65-1.56,4,4,0,0,0,0-5.6.91.91,0,1,1,1.29-1.29,5.8,5.8,0,0,1,0,8.19A.91.91,0,0,1,19.72,23.81ZM16.91,11.19c.49-.49.89-.32.89.37V27.33c0,.69-.4.86-.89.37l-4.6-4.6h-3V15.79h3Z"/></svg>