<svg id="Layer_1" data-name="Layer 1" xmlns="http://www.w3.org/2000/svg" viewBox="0 0 27 27"><defs><style>.cls-1{fill:#8abe58;opacity:0.6;}.cls-2{fill:#fff;}</style></defs><title>ico-love-mobile</title><circle class="cls-1" cx="13.5" cy="13.5" r="13.5"/><path class="cls-2" d="M20.71,12.48A4.14,4.14,0,0,0,13.5,9.7a4.14,4.14,0,1,0-5.85,5.85h0l4.51,4.51c.45.45.9.9,1.35.9s.9-.45,1.35-.9l4.51-4.51h0A4.13,4.13,0,0,0,20.71,12.48Zm-2.57,1.73-4.56,4.57-.08.08-.08-.08L8.86,14.22a2.31,2.31,0,0,1-.77-1.73,2.34,2.34,0,0,1,2.34-2.34,2.31,2.31,0,0,1,1.73.77l1.33,1.47,1.33-1.47a2.31,2.31,0,0,1,1.73-.77,2.34,2.34,0,0,1,2.34,2.34A2.31,2.31,0,0,1,18.14,14.22Z"/></svg>