<?xml version="1.0" encoding="utf-8"?>
<!-- Generator: Adobe Illustrator 20.1.0, SVG Export Plug-In . SVG Version: 6.00 Build 0)  -->
<svg version="1.1" id="Layer_1" xmlns="http://www.w3.org/2000/svg" xmlns:xlink="http://www.w3.org/1999/xlink" x="0px" y="0px"
	 viewBox="0 0 32.8 31.8" style="enable-background:new 0 0 32.8 31.8;" xml:space="preserve">
<style type="text/css">
	.st0{fill:#00B288;}
</style>
<path class="st0" d="M20.4,22.3c-0.8-0.1-0.8-2.4-0.8-2.4s2.4-2.4,2.9-5.5c1.4,0,2.3-3.4,0.9-4.6c0.1-1.3,1.8-9.8-7-9.8
	s-7.1,8.6-7,9.8C8,11,8.9,14.4,10.3,14.4c0.5,3.2,2.9,5.5,2.9,5.5s0,2.2-0.8,2.4C9.8,22.7,0,27,0,31.8h16.5h16.3
	C32.8,27.1,23,22.8,20.4,22.3z"/>
</svg>
