<svg id="Layer_1" data-name="Layer 1" xmlns="http://www.w3.org/2000/svg" viewBox="0 0 70.4 70.4"><defs><style>.cls-1{fill:#0fb794;}.cls-2{fill:#0095b1;}.cls-3{fill:#006468;}.cls-4{fill:#b9d535;}.cls-5{fill:#0c8241;}.cls-6{fill:#035a2e;}.cls-7{fill:#86c65a;}.cls-8{fill:#069046;}.cls-9{fill:#074a25;}.cls-10{fill:#5cba47;}.cls-11{fill:#0c8643;}.cls-12{fill:#066735;}.cls-13{fill:#0c4622;}</style></defs><title>ico-logo</title><path class="cls-1" d="M35.2,15.42l5.11-5.11a13.92,13.92,0,0,1,6.74-3.73,14,14,0,0,0-23.7,0,13.86,13.86,0,0,1,6.74,3.72Z"/><path class="cls-1" d="M35.2,55l-5.11,5.11a13.88,13.88,0,0,1-6.74,3.73,14,14,0,0,0,23.71,0,13.87,13.87,0,0,1-6.74-3.73Z"/><path class="cls-2" d="M21.22,21.22V14a13.9,13.9,0,0,1,2.13-7.4A14,14,0,0,0,6.59,23.35,13.89,13.89,0,0,1,14,21.22Z"/><path class="cls-2" d="M49.19,49.19v7.23a13.9,13.9,0,0,1-2.13,7.4A14,14,0,0,0,63.82,47.05a13.9,13.9,0,0,1-7.4,2.13Z"/><path class="cls-3" d="M21.22,21.22h8.19l5.8-5.8-5.11-5.11a13.86,13.86,0,0,0-6.74-3.72A13.9,13.9,0,0,0,21.22,14Z"/><path class="cls-3" d="M49.19,49.19H41L35.2,55l5.11,5.11a13.87,13.87,0,0,0,6.74,3.73,13.9,13.9,0,0,0,2.13-7.4Z"/><path class="cls-4" d="M70.4,35.2a14,14,0,0,0-6.58-11.85,13.87,13.87,0,0,1-3.72,6.74L55,35.2l5.11,5.11a13.88,13.88,0,0,1,3.72,6.74A14,14,0,0,0,70.4,35.2Z"/><path class="cls-5" d="M55,35.2,49.19,41v8.19h7.23a13.9,13.9,0,0,0,7.4-2.13,13.88,13.88,0,0,0-3.72-6.74Z"/><path class="cls-6" d="M45.25,44.93l-.13.14c-.09.09-.19.17-.28.26l.22-.2L41,49.19h8.19V41l-4.06,4.06Z"/><path class="cls-4" d="M15.42,35.2l-5.11-5.11a13.89,13.89,0,0,1-3.72-6.74,14,14,0,0,0,0,23.7,13.88,13.88,0,0,1,3.72-6.74Z"/><path class="cls-5" d="M15.42,35.2l5.79-5.79V21.22H14a13.89,13.89,0,0,0-7.4,2.13,13.89,13.89,0,0,0,3.72,6.74Z"/><path class="cls-6" d="M25.29,25.33h0l0,0h0l4.09-4.09H21.22v8.19l4.09-4.09Z"/><path class="cls-7" d="M49.19,21.22h7.23a13.89,13.89,0,0,1,7.4,2.13A14,14,0,0,0,47.05,6.58,13.91,13.91,0,0,1,49.19,14Z"/><path class="cls-8" d="M35.2,15.42l5.8,5.8h8.19V14a13.91,13.91,0,0,0-2.13-7.4,13.92,13.92,0,0,0-6.74,3.73Z"/><path class="cls-9" d="M34.77,21.24l.43,0,.44,0-.37,0H41l-5.8-5.8-5.8,5.8h5.72Z"/><path class="cls-10" d="M49.19,21.22v8.19L55,35.2l5.11-5.11a13.87,13.87,0,0,0,3.72-6.74,13.89,13.89,0,0,0-7.4-2.13Z"/><polygon class="cls-11" points="49.19 21.22 41 21.22 49.19 29.41 49.19 21.22"/><polygon class="cls-12" points="49.19 35.2 49.19 40.99 54.98 35.2 49.19 29.41 49.19 35.2"/><path class="cls-13" d="M35.64,21.24c.35,0,.7,0,1,.06l.33,0c.36,0,.71.1,1.05.17l.28.07c.35.08.71.17,1.05.28l.24.09c.35.12.7.24,1,.39l.22.1c.34.15.68.31,1,.49l.19.11c.33.19.65.38,1,.59l.19.14c.3.21.6.43.88.67l.19.17c.27.23.55.48.8.73l.19.21c.24.26.49.51.71.79.07.08.13.17.19.26.21.27.42.53.61.81.07.11.14.23.21.34.17.27.34.53.49.81s.13.28.2.42.27.53.38.8.12.34.18.51.2.51.28.77.11.43.17.65.13.46.18.69.08.52.12.79.07.4.09.6a13.77,13.77,0,0,1,.07,1.42V29.41L41,21.22H35.28Z"/><path class="cls-13" d="M49.12,36.62h0c0,.18-.06.36-.08.54h0c0,.28-.07.57-.13.84h0c0,.21-.1.4-.15.6s-.06.25-.09.37-.06.24-.09.36h0c-.07.22-.16.44-.24.65s-.1.28-.15.42,0,.13-.07.2h0c-.1.23-.22.46-.33.68s-.16.36-.26.54-.28.47-.42.7-.18.3-.28.45-.35.48-.53.71l-.23.31,0,0,0,0c-.2.24-.42.47-.63.7l-.13.15-.12.13L49.19,41V35.2A13.69,13.69,0,0,1,49.12,36.62Z"/><path class="cls-13" d="M25.33,25.29l.09-.08.36-.33.24-.22.26-.24,0,0h0l.15-.11.42-.31.21-.16.26-.2,0,0h0l.2-.12.46-.28.2-.12.25-.15,0,0h0l.34-.16.43-.21.13-.07.26-.12,0,0h0l.41-.15.46-.17.09,0,.27-.1,0,0h0c.16-.05.33-.08.49-.12l.5-.13.29-.07h.05c.25-.05.49-.08.74-.12l.25,0,.34,0h.06c.33,0,.66,0,1-.05l.36,0H29.41L25.32,25.3Z"/><path class="cls-7" d="M21.22,49.19H14a13.89,13.89,0,0,1-7.4-2.13A13.93,13.93,0,0,0,23.35,63.81a13.9,13.9,0,0,1-2.13-7.4Z"/><path class="cls-8" d="M35.2,55l-5.79-5.79H21.22v7.23a13.9,13.9,0,0,0,2.13,7.4,13.88,13.88,0,0,0,6.74-3.73Z"/><path class="cls-9" d="M35.63,49.17l-.43,0-.43,0,.35,0H29.41L35.2,55,41,49.19H35.28Z"/><path class="cls-13" d="M44.83,45.33l-.45.41-.25.23-.05,0-.23.17-.54.41-.24.18-.06,0-.26.16-.59.36-.24.15-.06,0-.32.15-.6.29-.25.12-.06,0-.39.14-.58.21-.26.09-.06,0-.5.13-.49.13-.29.07-.06,0c-.22,0-.45.07-.68.1l-.31,0-.33,0h-.06c-.33,0-.66,0-1,.05l-.35,0H41l4.06-4.06Z"/><path class="cls-10" d="M21.22,49.19V41l-5.79-5.8-5.11,5.11a13.88,13.88,0,0,0-3.72,6.74A13.89,13.89,0,0,0,14,49.19Z"/><path class="cls-11" d="M25.67,45.42l-.11-.1-.24-.21,0,0-.27-.3.25.28L21.22,41v8.19h8.19l-4.05-4.05Z"/><path class="cls-12" d="M21.23,35.48c0-.1,0-.19,0-.29s0-.19,0-.29c0,.08,0,.15,0,.23V29.41L15.42,35.2,21.22,41V35.26C21.22,35.33,21.23,35.41,21.23,35.48Z"/><path class="cls-13" d="M21.23,34.91c0-.38,0-.76.06-1.14h0a.29.29,0,0,1,0,0c0-.07,0-.13,0-.2s0-.23.05-.35.07-.53.12-.79h0v0c0-.06,0-.11,0-.17s.08-.29.11-.44.11-.46.18-.68h0v0c0-.05,0-.1.05-.14s.12-.34.19-.51.13-.39.21-.59h0l0,0,.07-.15c.07-.17.16-.33.24-.5s.16-.36.26-.53h0l0,0,.11-.18c.09-.16.2-.33.3-.49s.17-.3.27-.45h0l0,0,.13-.18.37-.5.26-.35h0l0,0,.17-.19.43-.48c.09-.1.17-.2.26-.29v0l-4.09,4.09v5.74C21.22,35.06,21.23,35,21.23,34.91Z"/><path class="cls-13" d="M25,44.77,25,44.7l-.35-.38-.18-.2,0,0,0,0-.11-.14-.22-.29-.29-.39L23.62,43l0,0,0,0,0,0c-.11-.16-.2-.33-.3-.49L23,42.06l-.1-.16,0,0c-.11-.21-.21-.43-.31-.65s-.13-.25-.19-.38l-.07-.15,0,0c-.1-.23-.17-.46-.26-.7s-.1-.26-.14-.39,0-.1-.05-.15l0,0v0c-.07-.24-.13-.49-.19-.74s-.07-.23-.09-.35,0-.11,0-.17v0h0c0-.14,0-.28-.06-.42s0-.28-.06-.43,0-.19,0-.29,0-.13,0-.2a.39.39,0,0,1,0,0h0c0-.37,0-.76-.06-1.14,0-.08,0-.15,0-.23V41L25.27,45Z"/><path class="cls-13" d="M34.78,49.17c-.33,0-.67,0-1-.05h-.06l-.34-.05-.25,0h0c-.24,0-.49-.06-.73-.11h-.06l-.3-.08-.32-.09-.21-.05-.44-.11h0l0,0-.29-.11-.38-.14-.19-.07-.36-.13h0l0,0-.29-.14L29,47.74l-.16-.08-.31-.15h0l0,0-.3-.18-.4-.24L27.72,47l-.3-.18,0,0,0,0L27,46.54l-.38-.28L26.34,46l0,0,0,0-.33-.3-.28-.25-.32-.29,4.05,4.05h5.72Z"/></svg>