<?xml version="1.0" encoding="utf-8"?>
<!-- Generator: Adobe Illustrator 21.0.2, SVG Export Plug-In . SVG Version: 6.00 Build 0)  -->
<svg version="1.1" id="Layer_1" xmlns="http://www.w3.org/2000/svg" xmlns:xlink="http://www.w3.org/1999/xlink" x="0px" y="0px"
	 viewBox="0 0 83.3 83.3" style="enable-background:new 0 0 83.3 83.3;" xml:space="preserve">
<style type="text/css">
	.st0{fill-opacity:0.2;stroke:#FFFFFF;stroke-width:2;stroke-miterlimit:10;}
	.st1{fill:#045196;}
	.st222{fill:#FFFFFF;}
	.st3{fill:#4099FF;}
	.st4{fill:#A5CC2E;}
	.st5{fill:#00889F;}
	.st6{fill:#00AC84;}
	.st7{fill:#00B894;}
	.st8{fill:#AFAFAF;stroke:#FFFFFF;stroke-width:1.5;stroke-miterlimit:10;}
	.st9{fill:#4C4C4C;}
	.st10{fill:none;stroke:#4C4C4C;stroke-miterlimit:10;}
	.st11{fill:#0095B1;}
	.st12{fill:#006367;}
	.st13{fill:#B9D833;}
	.st14{fill:#008136;}
	.st15{fill:#005928;}
	.st16{fill:#83CC58;}
	.st17{fill:#008F3D;}
	.st18{fill:#004A1F;}
	.st19{fill:#52C241;}
	.st20{fill:#00863C;}
	.st21{fill:#00662E;}
	.st22{fill:#00461D;}
	.st23{fill:#006791;}
	.st24{fill:#FFFFFF;fill-opacity:0.4;stroke:#FFFFFF;stroke-width:2;stroke-miterlimit:10;}
	.st25{fill:none;stroke:#00AC84;stroke-width:2;stroke-miterlimit:10;}
	.st26{fill:#00AC84;stroke:#00AC84;stroke-width:2;stroke-miterlimit:10;}
	.st27{fill:#CCCCCC;}
</style>
<g id="New_Symbol_6_3_">
</g>
<g id="New_Symbol_11">
	<g>
		<path class="st4" d="M41.7,0C18.7,0,0,18.7,0,41.7s18.7,41.7,41.7,41.7s41.7-18.7,41.7-41.7S64.7,0,41.7,0z"/>
		<g>
			<path class="st222" d="M27.3,36.3c0.5,0.3,1.8,1.3,4.1,2.8c2.3,1.6,4,2.8,5.2,3.6c0.1,0.1,0.4,0.3,0.8,0.6c0.4,0.3,0.8,0.6,1.1,0.8
				c0.3,0.2,0.6,0.4,1,0.6c0.4,0.2,0.8,0.4,1.1,0.5c0.4,0.1,0.7,0.2,1,0.2h0c0.3,0,0.6-0.1,1-0.2c0.4-0.1,0.7-0.3,1.1-0.5
				c0.4-0.2,0.7-0.5,1-0.6c0.3-0.2,0.6-0.4,1.1-0.8c0.4-0.3,0.7-0.5,0.8-0.6c1.2-0.8,4.3-3,9.3-6.5c1-0.7,1.8-1.5,2.4-2.4
				c0.6-1,1-2,1-3c0-0.9-0.3-1.6-0.9-2.2c-0.6-0.6-1.4-0.9-2.2-0.9H27c-1,0-1.8,0.3-2.4,1c-0.5,0.7-0.8,1.5-0.8,2.6
				c0,0.8,0.4,1.7,1.1,2.7C25.7,35,26.5,35.7,27.3,36.3L27.3,36.3z M27.3,36.3"/>
			<path class="st222" d="M57.5,38.4c-4.3,2.9-7.6,5.2-9.9,6.9c-0.8,0.6-1.4,1-1.8,1.3c-0.5,0.3-1.1,0.6-1.9,1
				c-0.8,0.3-1.5,0.5-2.2,0.5h0c-0.7,0-1.4-0.2-2.2-0.5c-0.8-0.3-1.4-0.6-1.9-1c-0.5-0.3-1.1-0.7-1.8-1.3c-1.8-1.3-5.1-3.6-9.9-6.9
				c-0.8-0.5-1.4-1.1-2-1.7v15.8c0,0.9,0.3,1.6,0.9,2.2c0.6,0.6,1.4,0.9,2.2,0.9h29.2c0.9,0,1.6-0.3,2.2-0.9s0.9-1.4,0.9-2.2V36.7
				C58.9,37.3,58.2,37.9,57.5,38.4L57.5,38.4z M57.5,38.4"/>
		</g>
	</g>
</g>
<g id="New_Symbol_8">
</g>
<g id="New_Symbol_8_1_">
</g>
<g id="New_Symbol_15_1_">
</g>
<g id="New_Symbol_6_4_">
</g>
<g id="New_Symbol_6_1_">
</g>
<g id="Blue_Radio_Button">
</g>
</svg>
