<?xml version="1.0" encoding="utf-8"?>
<!-- Generator: Adobe Illustrator 20.1.0, SVG Export Plug-In . SVG Version: 6.00 Build 0)  -->
<svg version="1.1" id="Layer_1" xmlns="http://www.w3.org/2000/svg" xmlns:xlink="http://www.w3.org/1999/xlink" x="0px" y="0px"
	 viewBox="0 0 14 16" style="enable-background:new 0 0 14 16;" xml:space="preserve">
<style type="text/css">
	.st0{opacity:0.6;fill:#FFFFFF;enable-background:new    ;}
</style>
<path class="st0" d="M9,2.3v2.1c0.6,0.2,1.1,0.6,1.5,1C11.4,6.3,12,7.6,12,8.9s-0.5,2.6-1.5,3.5S8.3,13.9,7,13.9s-2.6-0.5-3.5-1.5
	S2,10.2,2,8.9s0.5-2.6,1.5-3.5c0.4-0.4,1-0.8,1.5-1V2.3C2.1,3.2,0,5.8,0,9c0,3.8,3.1,7,7,7c3.8,0,7-3.1,7-7C13.9,5.8,11.8,3.1,9,2.3
	z M6,0h2v8H6V0z"/>
</svg>
