<?xml version="1.0" encoding="utf-8"?>
<!-- Generator: Adobe Illustrator 21.0.2, SVG Export Plug-In . SVG Version: 6.00 Build 0)  -->
<svg version="1.1" id="Layer_1" xmlns="http://www.w3.org/2000/svg" xmlns:xlink="http://www.w3.org/1999/xlink" x="0px" y="0px"
	 viewBox="0 0 82.5 82.5" style="enable-background:new 0 0 82.5 82.5;" xml:space="preserve">
<style type="text/css">
	.st0{fill-opacity:0.2;stroke:#FFFFFF;stroke-width:2;stroke-miterlimit:10;}
	.st1{fill:#045196;}
	.st222{fill:#FFFFFF;}
	.st3{fill:#4099FF;}
	.st4{fill:#A5CC2E;}
	.st5{fill:#00889F;}
	.st666{fill:#00AC84;}
	.st7{fill:#00B894;}
	.st8{fill:#AFAFAF;stroke:#FFFFFF;stroke-width:1.5;stroke-miterlimit:10;}
	.st9{fill:#4C4C4C;}
	.st10{fill:none;stroke:#4C4C4C;stroke-miterlimit:10;}
	.st11{fill:#0095B1;}
	.st12{fill:#006367;}
	.st13{fill:#B9D833;}
	.st14{fill:#008136;}
	.st15{fill:#005928;}
	.st16{fill:#83CC58;}
	.st17{fill:#008F3D;}
	.st18{fill:#004A1F;}
	.st19{fill:#52C241;}
	.st20{fill:#00863C;}
	.st21{fill:#00662E;}
	.st22{fill:#00461D;}
	.st23{fill:#006791;}
	.st24{fill:#FFFFFF;fill-opacity:0.4;stroke:#FFFFFF;stroke-width:2;stroke-miterlimit:10;}
	.st25{fill:none;stroke:#00AC84;stroke-width:2;stroke-miterlimit:10;}
	.st26{fill:#00AC84;stroke:#00AC84;stroke-width:2;stroke-miterlimit:10;}
	.st27{fill:#CCCCCC;}
</style>
<g id="New_Symbol_6_3_">
</g>
<g id="New_Symbol_11">
	<g>
		<path class="st666" d="M82.5,41.3c0,22.8-18.5,41.3-41.3,41.3S0,64.1,0,41.3C0,18.5,18.5,0,41.3,0S82.5,18.5,82.5,41.3L82.5,41.3z
			 M82.5,41.3"/>
		<g>
			<path class="st222" d="M33.8,49.2l-14.5-6.5v-2.5L33.8,33v4.3l-8.9,4.1l8.9,3.6V49.2z"/>
			<path class="st222" d="M47.9,30.5L40,52.1h-5l7.8-21.6H47.9z"/>
			<path class="st222" d="M49,45l8.9-3.6L49,37.3V33l14.5,7.3v2.5L49,49.2V45z"/>
		</g>
	</g>
</g>
<g id="New_Symbol_8">
</g>
<g id="New_Symbol_8_1_">
</g>
<g id="New_Symbol_15_1_">
</g>
<g id="New_Symbol_6_4_">
</g>
<g id="New_Symbol_6_1_">
</g>
<g id="Blue_Radio_Button">
</g>
</svg>
