<svg id="Layer_1" data-name="Layer 1" xmlns="http://www.w3.org/2000/svg" viewBox="0 0 55 55"><defs><style>.cls-1{fill:#165d6e;}.cls-2{fill:#fff;}</style></defs><title>ico-volume-large-mobile</title><circle class="cls-1" cx="27.5" cy="27.5" r="27.5"/><path class="cls-2" d="M36,37.48a1.26,1.26,0,0,1-.89-2.15,12.15,12.15,0,0,0,0-17.19,1.26,1.26,0,1,1,1.78-1.78,14.67,14.67,0,0,1,0,20.75A1.25,1.25,0,0,1,36,37.48Zm-4.47-2.37A1.26,1.26,0,0,1,30.69,33a8.81,8.81,0,0,0,0-12.45,1.26,1.26,0,1,1,1.78-1.78,11.32,11.32,0,0,1,0,16A1.25,1.25,0,0,1,31.58,35.11Zm-4.47-2.37a1.26,1.26,0,0,1-.89-2.15,5.45,5.45,0,0,0,0-7.71A1.26,1.26,0,1,1,28,21.11a8,8,0,0,1,0,11.26A1.25,1.25,0,0,1,27.11,32.74ZM23.25,15.39c.67-.67,1.22-.44,1.22.51V37.58c0,1-.55,1.18-1.22.51l-6.32-6.32H12.73V21.71h4.19Z"/></svg>