<?xml version="1.0" encoding="utf-8"?>
<!-- Generator: Adobe Illustrator 20.1.0, SVG Export Plug-In . SVG Version: 6.00 Build 0)  -->
<svg version="1.1" id="Layer_1" xmlns="http://www.w3.org/2000/svg" xmlns:xlink="http://www.w3.org/1999/xlink" x="0px" y="0px"
	 viewBox="0 0 47.5 26.8" style="enable-background:new 0 0 47.5 26.8;" xml:space="preserve">
<style type="text/css">
	.st0{fill:#8ABE58;}
</style>
<path class="st0" d="M47.5,18.7c0-3.8-2.6-7-6.2-7.9c-0.2-6-5-10.8-11-10.8c-3.5,0-6.6,1.6-8.7,4.2c-1.1-1.5-2.9-2.4-4.9-2.4
	c-3.4,0-6.2,2.8-6.2,6.2c0,0.3,0,0.6,0.1,0.9C10.1,8.8,9.5,8.8,9,8.8c-5,0-9,4-9,9s4,9,9,9h30.5l0,0C43.9,26.8,47.5,23.2,47.5,18.7z
	"/>
</svg>
