<?xml version="1.0" encoding="utf-8"?>
<!-- Generator: Adobe Illustrator 20.1.0, SVG Export Plug-In . SVG Version: 6.00 Build 0)  -->
<svg version="1.1" id="Layer_1" xmlns="http://www.w3.org/2000/svg" xmlns:xlink="http://www.w3.org/1999/xlink" x="0px" y="0px"
	 viewBox="0 0 24.8 18.7" style="enable-background:new 0 0 24.8 18.7;" xml:space="preserve">
<style type="text/css">
	.st0{fill:#8ABE58;}
</style>
<path class="st0" d="M9.3,3.9c0,2.1,1.7,3.9,3.9,3.9c2.1,0,3.9-1.7,3.9-3.9c0-2.1-1.7-3.9-3.9-3.9C11.1,0.1,9.3,1.8,9.3,3.9z M0,3.9
	C0,6,1.7,7.8,3.9,7.8s3.9-1.7,3.9-3.9C7.8,1.8,6.1,0,3.9,0S0,1.8,0,3.9z M18.6,11.7V9.4c0-0.9-0.7-1.5-1.5-1.5h-3.9H3.9H1.6
	c-0.9,0-1.5,0.7-1.5,1.5v7.7c0,0.9,0.7,1.5,1.5,1.5h15.5c0.9,0,1.5-0.7,1.5-1.5v-2.3l6.2,3.9V7.9L18.6,11.7z M15.5,15.5H3.1v-4.6
	h12.4V15.5z"/>
</svg>
