<svg id="Layer_1" data-name="Layer 1" xmlns="http://www.w3.org/2000/svg" viewBox="0 0 45 45"><defs><style>.cls-1{fill:#137080;}.cls-2{fill:#fff;}</style></defs><title>ico-video-small-mobile</title><circle class="cls-1" cx="22.5" cy="22.5" r="22.5"/><path class="cls-2" d="M20.42,16.11a3.85,3.85,0,1,0,3.85-3.85A3.85,3.85,0,0,0,20.42,16.11Zm-9.24,0A3.85,3.85,0,1,0,15,12.26,3.85,3.85,0,0,0,11.18,16.11Zm18.48,7.7V21.5A1.54,1.54,0,0,0,28.12,20H12.72a1.54,1.54,0,0,0-1.54,1.54v7.7a1.54,1.54,0,0,0,1.54,1.54h15.4a1.54,1.54,0,0,0,1.54-1.54V26.89l6.16,3.85V20Zm-3.08,3.85H14.26V23H26.58Z"/></svg>