<?xml version="1.0" encoding="utf-8"?>
<!-- Generator: Adobe Illustrator 21.0.2, SVG Export Plug-In . SVG Version: 6.00 Build 0)  -->
<svg version="1.1" id="Layer_1" xmlns="http://www.w3.org/2000/svg" xmlns:xlink="http://www.w3.org/1999/xlink" x="0px" y="0px"
	 viewBox="0 0 25.1 24.8" style="enable-background:new 0 0 25.1 24.8;" xml:space="preserve">
<style type="text/css">
	.st0{fill-opacity:0.2;stroke:#FFFFFF;stroke-width:2;stroke-miterlimit:10;}
	.st1{fill:#045196;}
	.st2{fill:#FFFFFF;}
	.st3{fill:#4099FF;}
	.st4{fill:#A5CC2E;}
	.st5{fill:#00889F;}
	.st6{fill:#00AC84;}
	.st7{fill:#00B894;}
	.st8{fill:#AFAFAF;stroke:#FFFFFF;stroke-width:1.5;stroke-miterlimit:10;}
	.st9{fill:#4C4C4C;}
	.st10{fill:none;stroke:#4C4C4C;stroke-miterlimit:10;}
	.st11{fill:#0095B1;}
	.st12{fill:#006367;}
	.st13{fill:#B9D833;}
	.st14{fill:#008136;}
	.st15{fill:#005928;}
	.st16{fill:#83CC58;}
	.st17{fill:#008F3D;}
	.st18{fill:#004A1F;}
	.st19{fill:#52C241;}
	.st20{fill:#00863C;}
	.st21{fill:#00662E;}
	.st22{fill:#00461D;}
	.st23{fill:#006791;}
	.st24{fill:#FFFFFF;fill-opacity:0.4;stroke:#FFFFFF;stroke-width:2;stroke-miterlimit:10;}
	.st25{fill:none;stroke:#00AC84;stroke-width:2;stroke-miterlimit:10;}
	.st26{fill:#00AC84;stroke:#00AC84;stroke-width:2;stroke-miterlimit:10;}
	.st27{fill:#CCCCCC;}
</style>
<g id="New_Symbol_6_3_">
</g>
<g id="New_Symbol_11">
</g>
<g id="New_Symbol_8">
</g>
<g id="New_Symbol_8_1_">
</g>
<g id="New_Symbol_15_1_">
</g>
<g>
	<path class="st2" d="M14.1,0c-1.1,0-0.8,2.5-0.8,2.5S10.9,9.2,8.6,11c-0.5,0.5-0.8,1.1-1,1.6c0,0.1-0.1,0.2-0.1,0.3
		c-0.2,0.3-0.5,0.8-1.2,1.2l2.3,10.2c0,0,3.6,0.5,7.3,0.4c1.5,0.1,3,0.1,4.2-0.1c4.2-0.9,3.1-3.8,3.1-3.8c2.2-1.7,1-3.8,1-3.8
		c2-2.1,0-3.8,0-3.8s1.1-1.7-0.3-3c-1.7-1.6-6.5-0.5-6.5-0.5c-0.3,0.1-0.7,0.1-1.1,0.2c0,0-1.6,0.8,0-4.2C18,0.8,15.3,0,14.1,0
		L14.1,0z M14.1,0"/>
	<path class="st2" d="M6.3,23.6l-1.8-8.4c-0.1-0.5-0.6-0.9-1.1-0.9H0l0,10.2h5.5C6,24.5,6.4,24.1,6.3,23.6L6.3,23.6z M6.3,23.6"/>
</g>
<g id="New_Symbol_6_4_">
</g>
<g id="New_Symbol_6_1_">
</g>
<g id="Blue_Radio_Button">
</g>
</svg>
