<?xml version="1.0" encoding="utf-8"?>
<!-- Generator: Adobe Illustrator 20.1.0, SVG Export Plug-In . SVG Version: 6.00 Build 0)  -->
<svg version="1.1" id="Layer_1" xmlns="http://www.w3.org/2000/svg" xmlns:xlink="http://www.w3.org/1999/xlink" x="0px" y="0px"
	 viewBox="0 0 19 18.3" style="enable-background:new 0 0 19 18.3;" xml:space="preserve">
<style type="text/css">
	.st0{fill:#00B288;}
</style>
<path class="st0" d="M11.7,12.9c-0.5-0.1-0.5-1.4-0.5-1.4s1.4-1.4,1.7-3.2c0.8,0,1.3-1.9,0.5-2.6c0-0.7,1-5.7-4-5.7
	c-5.1,0-4.1,4.9-4,5.7C4.6,6.4,5.1,8.3,5.9,8.3c0.3,1.8,1.7,3.2,1.7,3.2s0,1.3-0.5,1.4C5.6,13.1,0,15.6,0,18.3h9.5H19
	C18.9,15.6,13.2,13.1,11.7,12.9z"/>
</svg>
