<svg xmlns="http://www.w3.org/2000/svg" viewBox="0 0 22.88 31.2"><defs><style>.cls-1{fill:#6d6e70;}</style></defs><title>ico-report-content</title><g id="Layer_2" data-name="Layer 2"><g id="Layer_1-2" data-name="Layer 1"><path class="cls-1" d="M22.56,1.64a16.77,16.77,0,0,0-5.62-1,9.9,9.9,0,0,0-4.69,1.06,10.23,10.23,0,0,1-4.74.94A27.72,27.72,0,0,1,1,1.72V.52a.52.52,0,1,0-1,0V30.68a.52.52,0,1,0,1,0V18.4a28.2,28.2,0,0,0,6.45.85,11.19,11.19,0,0,0,5.23-1.06,8.9,8.9,0,0,1,4.21-.94,16,16,0,0,1,5.24,1,.51.51,0,0,0,.48-.05.53.53,0,0,0,.23-.43V2.12a.52.52,0,0,0-.33-.48Z"/></g></g></svg>