<?xml version="1.0" encoding="utf-8"?>
<!-- Generator: Adobe Illustrator 21.0.2, SVG Export Plug-In . SVG Version: 6.00 Build 0)  -->
<svg version="1.1" id="Слой_1" xmlns="http://www.w3.org/2000/svg" xmlns:xlink="http://www.w3.org/1999/xlink" x="0px" y="0px"
	 viewBox="0 0 27.1 26.8" style="enable-background:new 0 0 27.1 26.8;" xml:space="preserve">
<!-- <style type="text/css">
	.st0{fill:#FFFFFF;}
	.st1{fill:#00B894;}
	.st2{fill:#0095B1;}
	.st3{fill:#006367;}
	.st4{fill:#B9D833;}
	.st5{fill:#008136;}
	.st6{fill:#005928;}
	.st7{fill:#83CC58;}
	.st8{fill:#008F3D;}
	.st9{fill:#004A1F;}
	.st10{fill:#52C241;}
	.st11{fill:#00863C;}
	.st12{fill:#00662E;}
	.st13{fill:#00461D;}
	.st14{opacity:0.2;}
	.st15{opacity:0.4;}
	.st16{fill:#00AC84;}
	.st17{fill:#A5CC2E;}
</style> -->
<g id="New_Symbol_8">
</g>
<g>
	<g>
		<path class="" d="M16.2,3.6c0,0.5-0.2,1.1-0.4,1.9c-1.1,3.2-1.2,5-0.3,6.2c0.5,0.7,1.2,1,2,1c0.3,0,0.6-0.1,0.8-0.1
			c0.3-0.1,0.6-0.1,0.9-0.2l0.1,0l0,0c0,0,1.5-0.3,3-0.3c1.4,0,2,0.3,2.2,0.4c0.1,0.1,0.2,0.2,0,0.6l-1,1.4l1.3,1.2
			c0,0,0.3,0.3,0.3,0.5c0,0.2-0.3,0.6-0.4,0.7l-1.2,1.1l0.9,1.3c0.4,0.8-0.3,1.3-0.5,1.5l-1.2,0.9l0.5,1.4c0,0,0.1,0.3-0.1,0.5
			c-0.2,0.4-0.9,0.7-1.8,0.9c-0.6,0.1-1.3,0.2-2.2,0.2c-0.6,0-1.2,0-1.8-0.1l-0.1,0l-0.1,0c-0.3,0-0.6,0-0.8,0
			c-2.1,0-4.1-0.2-5.3-0.3L9,16.1c0.4-0.4,0.7-0.9,0.9-1.2l0.1-0.1l0-0.1c0-0.1,0.1-0.2,0.1-0.3c0.2-0.4,0.4-0.7,0.6-1
			C13.3,11.2,15.6,5.4,16.2,3.6 M15.3,0c-1.2,0-0.8,2.6-0.8,2.6s-2.6,7.3-5.2,9.2c-0.5,0.6-0.9,1.2-1.1,1.7c0,0.1-0.1,0.2-0.1,0.4
			c-0.2,0.3-0.5,0.9-1.3,1.3l2.5,11c0,0,3.4,0.4,7,0.4c0.3,0,0.6,0,0.9,0c0.7,0.1,1.3,0.1,2,0.1c0.9,0,1.8-0.1,2.6-0.2
			c4.5-1,3.4-4.1,3.4-4.1c2.4-1.8,1-4.1,1-4.1c2.2-2.3,0-4.1,0-4.1s1.2-1.8-0.3-3.2c-0.8-0.7-2.2-0.9-3.5-0.9
			c-1.8,0-3.4,0.4-3.4,0.4c-0.4,0.1-0.7,0.1-1.1,0.2c0,0-0.1,0-0.2,0c-0.4,0-1.1-0.5,0.2-4.6C19.5,0.8,16.5,0,15.3,0L15.3,0z"/>
	</g>
	<g>
		<path class="" d="M3,17.5l1.5,7H2l0-7H3 M3.7,15.5H0l0,11h6c0,0,0,0,0,0c0.5,0,0.9-0.4,0.8-0.9l-1.9-9.1
			C4.7,15.9,4.2,15.5,3.7,15.5L3.7,15.5z"/>
	</g>
</g>
<g>
	<g>
		<g>
			<path class="" d="M19.1,25.8c-0.6,0-1.2,0-1.9-0.1l-0.1,0c-0.3,0-0.6,0-0.9,0c-2.6,0-5-0.2-6.1-0.3l-2.2-9.7
				c0.6-0.5,0.9-1,1.1-1.3l0-0.1c0,0,0.1-0.3,0.1-0.4c0.2-0.5,0.5-1,0.8-1.3c2.7-2.1,5.2-8.9,5.4-9.6l0.1-0.2l0-0.3
				c-0.1-0.5-0.1-1.2,0-1.5c0.3,0,1,0.2,1.4,0.7c0.6,0.8,0.5,2.2-0.1,4.1c-1.2,3.6-0.9,4.7-0.5,5.3c0.3,0.4,0.7,0.6,1.2,0.6
				c0.2,0,0.4,0,0.5-0.1c0.4-0.1,0.7-0.2,1-0.2c0.1,0,1.6-0.4,3.3-0.4c1.4,0,2.4,0.2,2.9,0.7c0.8,0.8,0.3,1.7,0.2,1.9l-0.4,0.7
				l0.6,0.6c0,0,0.6,0.5,0.6,1.3c0,0.5-0.2,1-0.7,1.4l-0.5,0.6l0.4,0.7c0.1,0.2,0.8,1.6-0.8,2.8l-0.6,0.4l0.2,0.7
				c0,0,0.2,0.7-0.2,1.4c-0.4,0.6-1.2,1.1-2.5,1.4C20.8,25.7,20,25.8,19.1,25.8z"/>
		</g>
		<g>
			<path class="" d="M16.2,3.6c0,0.5-0.2,1.1-0.4,1.9c-1.1,3.2-1.2,5-0.3,6.2c0.5,0.7,1.2,1,2,1c0.3,0,0.6-0.1,0.8-0.1
				c0.3-0.1,0.6-0.1,0.9-0.2l0.1,0l0,0c0,0,1.5-0.3,3-0.3c1.4,0,2,0.3,2.2,0.4c0.1,0.1,0.2,0.2,0,0.6l-1,1.4l1.3,1.2
				c0,0,0.3,0.3,0.3,0.5c0,0.2-0.3,0.6-0.4,0.7l-1.2,1.1l0.9,1.3c0.4,0.8-0.3,1.3-0.5,1.5l-1.2,0.9l0.5,1.4c0,0,0.1,0.3-0.1,0.5
				c-0.2,0.4-0.9,0.7-1.8,0.9c-0.6,0.1-1.3,0.2-2.2,0.2c-0.6,0-1.2,0-1.8-0.1l-0.1,0l-0.1,0c-0.3,0-0.6,0-0.8,0
				c-2.1,0-4.1-0.2-5.3-0.3L9,16.1c0.4-0.4,0.7-0.9,0.9-1.2l0.1-0.1l0-0.1c0-0.1,0.1-0.2,0.1-0.3c0.2-0.4,0.4-0.7,0.6-1
				C13.3,11.2,15.6,5.4,16.2,3.6 M15.3,0c-1.2,0-0.8,2.6-0.8,2.6s-2.6,7.3-5.2,9.2c-0.5,0.6-0.9,1.2-1.1,1.7c0,0.1-0.1,0.2-0.1,0.4
				c-0.2,0.3-0.5,0.9-1.3,1.3l2.5,11c0,0,3.4,0.4,7,0.4c0.3,0,0.6,0,0.9,0c0.7,0.1,1.3,0.1,2,0.1c0.9,0,1.8-0.1,2.6-0.2
				c4.5-1,3.4-4.1,3.4-4.1c2.4-1.8,1-4.1,1-4.1c2.2-2.3,0-4.1,0-4.1s1.2-1.8-0.3-3.2c-0.8-0.7-2.2-0.9-3.5-0.9
				c-1.8,0-3.4,0.4-3.4,0.4c-0.4,0.1-0.7,0.1-1.1,0.2c0,0-0.1,0-0.2,0c-0.4,0-1.1-0.5,0.2-4.6C19.5,0.8,16.5,0,15.3,0L15.3,0z"/>
		</g>
	</g>
	<g>
		<g>
			<path class="" d="M1,25.5l0-9h2.7c0.1,0,0.2,0.1,0.2,0.2l1.9,8.8H1z"/>
		</g>
		<g>
			<path class="" d="M3,17.5l1.5,7H2l0-7H3 M3.7,15.5H0l0,11h6c0,0,0,0,0,0c0.5,0,0.9-0.4,0.8-0.9l-1.9-9.1
				C4.7,15.9,4.2,15.5,3.7,15.5L3.7,15.5z"/>
		</g>
	</g>
</g>
</svg>
