<?xml version="1.0" encoding="utf-8"?>
<!-- Generator: Adobe Illustrator 20.1.0, SVG Export Plug-In . SVG Version: 6.00 Build 0)  -->
<svg version="1.1" id="Layer_1" xmlns="http://www.w3.org/2000/svg" xmlns:xlink="http://www.w3.org/1999/xlink" x="0px" y="0px"
	 viewBox="0 0 18.7 18.8" style="enable-background:new 0 0 18.7 18.8;" xml:space="preserve">
<style type="text/css">
	.st0{fill:#00B288;}
</style>
<path class="st0" d="M5.8,3.5L18.7,0v1.2v2.3v10c0,1.6-1.8,2.9-4.1,2.9c-2.3,0-4.1-1.3-4.1-2.9s1.8-2.9,4.1-2.9
	c0.6,0,1.2,0.1,1.8,0.3v-6L8.2,7.1v8.8c0,1.6-1.8,2.9-4.1,2.9c-2.3,0-4.1-1.3-4.1-2.9S1.8,13,4.1,13c0.6,0,1.2,0.1,1.8,0.3V7.1
	L5.8,3.5L5.8,3.5z"/>
</svg>
