<svg id="Layer_1" data-name="Layer 1" xmlns="http://www.w3.org/2000/svg" viewBox="0 0 613 321"><defs><style>.cls-1,.cls-3,.cls-5{opacity:0.5;}.cls-11,.cls-2,.cls-3{fill:#14aa85;}.cls-10,.cls-4,.cls-5{fill:#8abe58;}.cls-6{fill:#165d6e;}.cls-7{fill:#00b288;}.cls-8{fill:#13505e;}.cls-9{fill:#fff;}.cls-10,.cls-11{opacity:0.6;}.cls-12{fill:#137080;}.cls-13{fill:#b0ca3f;}.cls-14{fill:none;stroke:#fff;stroke-linecap:round;stroke-miterlimit:10;stroke-width:7px;}</style></defs><title>ico-mobile-success-icon</title><g class="cls-1"><circle class="cls-2" cx="144" cy="149" r="10"/><circle class="cls-3" cx="304.5" cy="156.5" r="3.5"/><circle class="cls-4" cx="397.5" cy="55.5" r="5.5"/><circle class="cls-4" cx="418.5" cy="210.5" r="2.5" transform="translate(98.73 552.85) rotate(-73.65)"/><circle class="cls-4" cx="127.5" cy="47.5" r="8.5"/><circle class="cls-5" cx="251" cy="148" r="4"/><circle class="cls-6" cx="474.5" cy="112.5" r="7.5"/><circle class="cls-6" cx="29" cy="264" r="5"/><circle class="cls-6" cx="130" cy="101" r="4"/><circle class="cls-6" cx="209" cy="148" r="3"/><circle class="cls-6" cx="255" cy="43" r="10"/><circle class="cls-6" cx="403" cy="162" r="6"/><circle class="cls-6" cx="123.5" cy="227.5" r="5.5"/><circle class="cls-4" cx="503.5" cy="75.5" r="3.5"/><circle class="cls-7" cx="530.5" cy="232.5" r="3.5"/><circle class="cls-7" cx="599.5" cy="281.5" r="4.5"/><circle class="cls-7" cx="329" cy="56" r="4"/><circle class="cls-7" cx="76.5" cy="273.5" r="4.5"/><circle class="cls-4" cx="6" cy="100" r="3"/><circle class="cls-4" cx="602.5" cy="32.5" r="5.5"/><circle class="cls-7" cx="601" cy="99" r="4"/><circle class="cls-7" cx="609" cy="191" r="4"/><circle class="cls-7" cx="551" cy="37" r="4"/><circle class="cls-7" cx="96" cy="11" r="4"/><circle class="cls-7" cx="57" cy="92" r="1"/><circle class="cls-7" cx="12.5" cy="175.5" r="6.5"/><circle class="cls-8" cx="584" cy="151" r="3"/><circle class="cls-8" cx="65" cy="29" r="8"/><circle class="cls-8" cx="32.5" cy="134.5" r="5.5"/><circle class="cls-8" cx="4.5" cy="218.5" r="4.5"/><circle class="cls-8" cx="194" cy="94" r="7"/><circle class="cls-8" cx="583.5" cy="74.5" r="6.5"/><circle class="cls-8" cx="580" cy="203" r="7"/><circle class="cls-8" cx="350" cy="109" r="7"/><circle class="cls-8" cx="397.5" cy="5.5" r="5.5"/><circle class="cls-8" cx="500.5" cy="10.5" r="6.5"/></g><circle class="cls-6" cx="265.5" cy="94.5" r="27.5"/><path class="cls-9" d="M274,104.48a1.26,1.26,0,0,1-.89-2.15,12.15,12.15,0,0,0,0-17.19,1.26,1.26,0,1,1,1.78-1.78,14.67,14.67,0,0,1,0,20.75A1.25,1.25,0,0,1,274,104.48Zm-4.47-2.37a1.26,1.26,0,0,1-.89-2.15,8.81,8.81,0,0,0,0-12.45,1.26,1.26,0,1,1,1.78-1.78,11.32,11.32,0,0,1,0,16A1.25,1.25,0,0,1,269.58,102.11Zm-4.47-2.37a1.26,1.26,0,0,1-.89-2.15,5.45,5.45,0,0,0,0-7.71A1.26,1.26,0,1,1,266,88.11a8,8,0,0,1,0,11.26A1.25,1.25,0,0,1,265.11,99.74Zm-3.87-17.35c.67-.67,1.22-.44,1.22.51v21.69c0,1-.55,1.18-1.22.51l-6.32-6.32h-4.19V88.71h4.19Z"/><circle class="cls-10" cx="557" cy="122" r="20"/><path class="cls-9" d="M563.22,129.26a.91.91,0,0,1-.65-1.56,8.84,8.84,0,0,0,0-12.5.91.91,0,0,1,1.29-1.29,10.67,10.67,0,0,1,0,15.09A.91.91,0,0,1,563.22,129.26ZM560,127.53a.91.91,0,0,1-.65-1.56,6.41,6.41,0,0,0,0-9.05.91.91,0,1,1,1.29-1.29,8.23,8.23,0,0,1,0,11.64A.91.91,0,0,1,560,127.53Zm-3.25-1.72a.91.91,0,0,1-.65-1.56,4,4,0,0,0,0-5.6.91.91,0,1,1,1.29-1.29,5.8,5.8,0,0,1,0,8.19A.91.91,0,0,1,556.72,125.81Zm-2.81-12.62c.49-.49.89-.32.89.37v15.77c0,.69-.4.86-.89.37l-4.6-4.6h-3v-7.32h3Z"/><circle class="cls-10" cx="76" cy="207" r="27.5"/><path class="cls-9" d="M74.75,198.61a4.92,4.92,0,1,0,4.92-4.92A4.92,4.92,0,0,0,74.75,198.61Zm-11.8,0a4.92,4.92,0,1,0,4.92-4.92A4.92,4.92,0,0,0,62.95,198.61Zm23.6,9.83v-2.95a2,2,0,0,0-2-2H64.91a2,2,0,0,0-2,2v9.83a2,2,0,0,0,2,2H84.58a2,2,0,0,0,2-2v-2.95l7.87,4.92V203.52Zm-3.93,4.92H66.88v-5.9H82.61Z"/><circle class="cls-6" cx="483.5" cy="191.5" r="27.5"/><path class="cls-9" d="M470.17,180.75v21.93h27V180.75ZM495.47,201H471.86V182.44h23.61Zm-6.75-14.34a2.53,2.53,0,1,0,2.53-2.53A2.53,2.53,0,0,0,488.73,186.65Zm5.06,12.65H473.55l5.06-13.49,6.75,8.43,3.37-2.53Z"/><circle class="cls-11" cx="412.5" cy="117.5" r="14.5"/><path class="cls-9" d="M416.22,115.53l-6.2-6.2a8.73,8.73,0,0,1,6.2.13Zm1.09,5.27V110a8.71,8.71,0,0,1,3.72,10.8Zm-7.62,1.09h10.8a8.71,8.71,0,0,1-10.8,3.72Zm1.81-9.25-7,7a8.71,8.71,0,0,1,4.26-9.73Zm-2.89,4.72v7.71A8.74,8.74,0,0,1,405,121Z"/><circle class="cls-10" cx="342.5" cy="27.5" r="13.5"/><path class="cls-9" d="M349.71,26.48a4.14,4.14,0,0,0-7.21-2.78,4.14,4.14,0,1,0-5.85,5.85h0l4.51,4.51c.45.45.9.9,1.35.9s.9-.45,1.35-.9l4.51-4.51h0A4.13,4.13,0,0,0,349.71,26.48Zm-2.57,1.73-4.56,4.57-.08.08-.08-.08-4.56-4.57a2.31,2.31,0,0,1-.77-1.73,2.34,2.34,0,0,1,2.34-2.34,2.31,2.31,0,0,1,1.73.77l1.33,1.47,1.33-1.47a2.31,2.31,0,0,1,1.73-.77,2.34,2.34,0,0,1,2.34,2.34A2.31,2.31,0,0,1,347.14,28.22Z"/><circle class="cls-11" cx="84" cy="97" r="20"/><path class="cls-9" d="M79.54,89.7l14.83-4v15.5c0,1.86-2.11,3.37-4.72,3.37s-4.72-1.51-4.72-3.37,2.11-3.37,4.72-3.37a6.31,6.31,0,0,1,2,.32V91.17l-9.44,2.57v10.11c0,1.86-2.11,3.37-4.72,3.37s-4.72-1.51-4.72-3.37,2.11-3.37,4.72-3.37a6.31,6.31,0,0,1,2,.32V89.7Z"/><circle class="cls-10" cx="201.5" cy="29.5" r="14.5"/><path class="cls-9" d="M205.22,27.53l-6.2-6.2a8.73,8.73,0,0,1,6.2.13Zm1.09,5.27V22A8.71,8.71,0,0,1,210,32.79Zm-7.62,1.09h10.8a8.71,8.71,0,0,1-10.8,3.72Zm1.81-9.25-7,7a8.71,8.71,0,0,1,4.26-9.73Zm-2.89,4.72v7.71A8.74,8.74,0,0,1,194,33Z"/><circle class="cls-12" cx="461.5" cy="42.5" r="22.5"/><path class="cls-9" d="M459.42,36.11a3.85,3.85,0,1,0,3.85-3.85A3.85,3.85,0,0,0,459.42,36.11Zm-9.24,0A3.85,3.85,0,1,0,454,32.26,3.85,3.85,0,0,0,450.18,36.11Zm18.48,7.7V41.5A1.54,1.54,0,0,0,467.12,40h-15.4a1.54,1.54,0,0,0-1.54,1.54v7.7a1.54,1.54,0,0,0,1.54,1.54h15.4a1.54,1.54,0,0,0,1.54-1.54V46.89l6.16,3.85V40Zm-3.08,3.85H453.26V43h12.32Z"/><circle class="cls-13" cx="302" cy="251" r="70"/><polyline class="cls-14" points="268.46 250.64 293.26 275.43 339.54 229.15"/></svg>