<?xml version="1.0" encoding="utf-8"?>
<!-- Generator: Adobe Illustrator 21.0.2, SVG Export Plug-In . SVG Version: 6.00 Build 0)  -->
<svg version="1.1" id="Слой_1" xmlns="http://www.w3.org/2000/svg" xmlns:xlink="http://www.w3.org/1999/xlink" x="0px" y="0px"
	 viewBox="0 0 16.4 30.4" style="enable-background:new 0 0 16.4 30.4;" xml:space="preserve">
<!-- <style type="text/css">
	.st0{fill:#FFFFFF;}
	.st1{fill:#00B894;}
	.st2{fill:#0095B1;}
	.st3{fill:#006367;}
	.st4{fill:#B9D833;}
	.st5{fill:#008136;}
	.st6{fill:#005928;}
	.st7{fill:#83CC58;}
	.st8{fill:#008F3D;}
	.st9{fill:#004A1F;}
	.st10{fill:#52C241;}
	.st11{fill:#00863C;}
	.st12{fill:#00662E;}
	.st13{fill:#00461D;}
	.st14{opacity:0.2;}
	.st15{opacity:0.4;}
	.st16{fill:#00AC84;}
	.st17{fill:#A5CC2E;}
</style> -->
<g id="New_Symbol_8">
</g>
<g>
	<path class="st1" d="M1.2,0C1.5,0,1.8,0.1,2,0.3l14,14c0.2,0.2,0.4,0.5,0.4,0.9c0,0.3-0.1,0.6-0.3,0.8L2,30
		c-0.2,0.2-0.5,0.3-0.8,0.3c-0.3,0-0.6-0.1-0.8-0.3C0.1,29.8,0,29.5,0,29.2s0.1-0.6,0.3-0.8l13.1-13.1L0.3,2C0.1,1.8,0,1.5,0,1.2
		c0-0.3,0.1-0.6,0.3-0.8S0.9,0,1.2,0z"/>
</g>
</svg>
