<?xml version="1.0" encoding="utf-8"?>
<!-- Generator: Adobe Illustrator 21.0.2, SVG Export Plug-In . SVG Version: 6.00 Build 0)  -->
<svg version="1.1" id="Слой_1" xmlns="http://www.w3.org/2000/svg" xmlns:xlink="http://www.w3.org/1999/xlink" x="0px" y="0px"
	 viewBox="0 0 108.7 108.7" style="enable-background:new 0 0 108.7 108.7;" xml:space="preserve">
<style type="text/css">
	.st0{opacity:0.2;}
	.st1{fill:#FFFFFF;}
	.st2{opacity:0.4;}
</style>
<g id="New_Symbol_8">
</g>
<g>
	<g>
		<g class="st0">
			<g>
				<path d="M54.3,1C24.9,1,1,24.9,1,54.4s23.9,53.3,53.3,53.3s53.3-23.9,53.3-53.3S83.8,1,54.3,1z"/>
			</g>
		</g>
		<g>
			<path class="st1" d="M54.3,108.7C24.4,108.7,0,84.3,0,54.3C0,24.4,24.4,0,54.3,0c30,0,54.3,24.4,54.3,54.3
				C108.7,84.3,84.3,108.7,54.3,108.7z M54.3,2C25.5,2,2,25.5,2,54.3c0,28.9,23.5,52.3,52.3,52.3c28.9,0,52.3-23.5,52.3-52.3
				C106.7,25.5,83.2,2,54.3,2z"/>
		</g>
	</g>
	<g>
		<g>
			<g class="st2">
				<path class="st1" d="M45.3,73.8h-1c-1.1,0-2-0.9-2-2v-35c0-1.1,0.9-2,2-2h1c1.1,0,2,0.9,2,2v35C47.3,73,46.5,73.8,45.3,73.8z"/>
			</g>
			<g>
				<path class="st1" d="M45.4,74.8h-1c-1.7,0-3-1.3-3-3v-35c0-1.7,1.3-3,3-3h1c1.7,0,3,1.3,3,3v35C48.4,73.5,47,74.8,45.4,74.8z
					 M44.4,35.9c-0.6,0-1,0.4-1,1v35c0,0.6,0.4,1,1,1h1c0.6,0,1-0.4,1-1v-35c0-0.6-0.4-1-1-1H44.4z"/>
			</g>
		</g>
		<g>
			<g class="st2">
				<path class="st1" d="M64.3,73.8h-1c-1.1,0-2-0.9-2-2v-35c0-1.1,0.9-2,2-2h1c1.1,0,2,0.9,2,2v35C66.3,73,65.5,73.8,64.3,73.8z"/>
			</g>
			<g>
				<path class="st1" d="M64.3,74.8h-1c-1.7,0-3-1.3-3-3v-35c0-1.7,1.3-3,3-3h1c1.7,0,3,1.3,3,3v35C67.3,73.5,66,74.8,64.3,74.8z
					 M63.3,35.9c-0.6,0-1,0.4-1,1v35c0,0.6,0.4,1,1,1h1c0.6,0,1-0.4,1-1v-35c0-0.6-0.4-1-1-1H63.3z"/>
			</g>
		</g>
	</g>
</g>
</svg>
