<?xml version="1.0" encoding="utf-8"?>
<!-- Generator: Adobe Illustrator 21.0.2, SVG Export Plug-In . SVG Version: 6.00 Build 0)  -->
<svg version="1.1" id="Слой_1" xmlns="http://www.w3.org/2000/svg" xmlns:xlink="http://www.w3.org/1999/xlink" x="0px" y="0px"
	 viewBox="0 0 108.7 108.7" style="enable-background:new 0 0 108.7 108.7;" xml:space="preserve">
<style type="text/css">
	.st0{fill:#FFFFFF;}
	.st1{fill:#00B894;}
	.st2{fill:#0095B1;}
	.st3{fill:#006367;}
	.st4{fill:#B9D833;}
	.st5{fill:#008136;}
	.st6{fill:#005928;}
	.st7{fill:#83CC58;}
	.st8{fill:#008F3D;}
	.st9{fill:#004A1F;}
	.st10{fill:#52C241;}
	.st11{fill:#00863C;}
	.st12{fill:#00662E;}
	.st13{fill:#00461D;}
	.st14{opacity:0.2;}
	.st15{opacity:0.4;}
	.st16{fill:#00AC84;}
	.st17{fill:#A5CC2E;}
</style>
<g id="New_Symbol_8">
</g>
<g>
	<g>
		<g class="st14">
			<g>
				<path d="M54.3,1C24.9,1,1,24.9,1,54.3s23.9,53.3,53.3,53.3s53.3-23.9,53.3-53.3S83.8,1,54.3,1z"/>
			</g>
		</g>
		<g>
			<path class="st0" d="M54.3,108.7C24.4,108.7,0,84.3,0,54.3S24.4,0,54.3,0s54.3,24.4,54.3,54.3S84.3,108.7,54.3,108.7z M54.3,2
				C25.5,2,2,25.5,2,54.3s23.5,52.3,52.3,52.3s52.3-23.5,52.3-52.3S83.2,2,54.3,2z"/>
		</g>
	</g>
	<g>
		<g class="st15">
			<path class="st0" d="M76.9,56l-30.7,19c-1.3,0.8-2.8-0.1-2.8-1.7V35.3c0-1.6,1.5-2.5,2.8-1.7l30.8,19
				C78.2,53.4,78.1,55.3,76.9,56z"/>
		</g>
		<g>
			<path class="st0" d="M45.1,76.4c-0.5,0-0.9-0.1-1.3-0.3c-0.9-0.5-1.5-1.5-1.5-2.7V35.3c0-1.1,0.6-2.1,1.5-2.7
				c0.9-0.5,1.9-0.5,2.8,0.1l30.8,19c0.9,0.5,1.4,1.4,1.4,2.5c0,1.1-0.6,2.1-1.5,2.6l-30.7,19C46.2,76.2,45.7,76.4,45.1,76.4z
				 M45.1,34.3c-0.1,0-0.2,0-0.3,0.1c-0.3,0.2-0.5,0.5-0.5,0.9v38.1c0,0.4,0.2,0.8,0.5,0.9c0.2,0.1,0.5,0.1,0.8-0.1l30.7-19
				c0.3-0.2,0.5-0.6,0.5-0.9c0-0.2-0.1-0.5-0.4-0.8l-30.8-19C45.5,34.3,45.3,34.3,45.1,34.3z"/>
		</g>
	</g>
</g>
</svg>
