<?xml version="1.0" encoding="utf-8"?>
<!-- Generator: Adobe Illustrator 18.1.0, SVG Export Plug-In . SVG Version: 6.00 Build 0)  -->
<svg version="1.1" id="Layer_1" xmlns="http://www.w3.org/2000/svg" xmlns:xlink="http://www.w3.org/1999/xlink" x="0px" y="0px"
	 viewBox="0 0 35.6 35.6" enable-background="new 0 0 35.6 35.6" xml:space="preserve">
<g>
	<path fill="#CDCCCC" d="M35.1,2.5L2.5,35.1c-0.6,0.6-1.5,0.6-2.1,0h0c-0.6-0.6-0.6-1.5,0-2.1L33.1,0.4c0.6-0.6,1.5-0.6,2.1,0l0,0
		C35.7,1,35.7,1.9,35.1,2.5z"/>
	<path fill="#CDCCCC" d="M33.1,35.1L0.4,2.5c-0.6-0.6-0.6-1.5,0-2.1l0,0c0.6-0.6,1.5-0.6,2.1,0l32.6,32.6c0.6,0.6,0.6,1.5,0,2.1h0
		C34.6,35.7,33.6,35.7,33.1,35.1z"/>
</g>
</svg>
