<?xml version="1.0" encoding="utf-8"?>
<!-- Generator: Adobe Illustrator 21.0.2, SVG Export Plug-In . SVG Version: 6.00 Build 0)  -->
<svg version="1.1" id="Слой_1" xmlns="http://www.w3.org/2000/svg" xmlns:xlink="http://www.w3.org/1999/xlink" x="0px" y="0px"
	 viewBox="0 0 40.3 39.9" style="enable-background:new 0 0 40.3 39.9;" xml:space="preserve">
<style type="text/css">
	.st0{fill:#FFFFFF;}
	.st1{fill:#00B894;}
	.st2{fill:#0095B1;}
	.st3{fill:#006367;}
	.st4{fill:#B9D833;}
	.st5{fill:#008136;}
	.st6{fill:#005928;}
	.st7{fill:#83CC58;}
	.st8{fill:#008F3D;}
	.st9{fill:#004A1F;}
	.st10{fill:#52C241;}
	.st11{fill:#00863C;}
	.st12{fill:#00662E;}
	.st13{fill:#00461D;}
	.st14{opacity:0.2;}
	.st15{opacity:0.4;}
	.st16{fill:#00AC84;}
	.st17{fill:#A5CC2E;}
</style>
<g id="New_Symbol_8">
</g>
<g>
	<g>
		<path class="st17" d="M23.4,2.1c0.4,0.1,0.9,0.3,1.2,0.8c0.7,1,0.7,3-0.2,5.7c-1.5,4.5-1.7,6.9-0.6,8.3c0.5,0.7,1.3,1.1,2.2,1.1
			c0.4,0,0.7-0.1,0.9-0.2c0.5-0.1,1-0.2,1.4-0.3l0.1,0l0.1,0c0,0,2.3-0.5,4.7-0.5c2.7,0,3.6,0.6,3.9,0.9c0.9,0.8,0.3,1.9,0.2,2.2
			l-0.9,1.4l1.3,1.1c0.2,0.2,0.7,0.8,0.7,1.5c0,0.5-0.3,1.1-0.9,1.8l-1.1,1.1l0.8,1.3c0.1,0.2,1.1,1.9-1,3.5l-1.2,0.9l0.5,1.4
			c0,0,0.2,0.8-0.2,1.6c-0.5,0.8-1.6,1.5-3.4,1.8c-0.9,0.2-2.1,0.3-3.4,0.3c-0.8,0-1.8,0-2.8-0.1l-0.1,0l-0.1,0c-0.4,0-0.8,0-1.3,0
			c-3.5,0-6.9-0.3-8.7-0.5l-3.2-13.7c0.8-0.7,1.2-1.4,1.5-1.9l0.1-0.1l0-0.1c0-0.1,0.1-0.3,0.2-0.4c0.3-0.7,0.7-1.3,1.1-1.8
			c4.1-3.3,7.8-13.4,8.2-14.5l0.2-0.5l-0.1-0.5C23.4,3.2,23.4,2.6,23.4,2.1 M22.7,0c-1.8,0-1.2,3.9-1.2,3.9s-3.9,10.9-7.7,13.8
			c-0.8,0.8-1.3,1.8-1.6,2.6c-0.1,0.2-0.1,0.4-0.2,0.5c-0.3,0.5-0.8,1.3-1.9,2l3.8,16.4c0,0,5,0.6,10.4,0.6c0.4,0,0.9,0,1.3,0
			c1,0.1,2,0.1,2.9,0.1c1.4,0,2.7-0.1,3.9-0.3c6.7-1.4,5-6.1,5-6.1c3.6-2.7,1.6-6.1,1.6-6.1c3.2-3.4,0.1-6.2,0.1-6.2
			s1.7-2.7-0.5-4.8c-1.2-1.1-3.3-1.4-5.3-1.4c-2.6,0-5.1,0.6-5.1,0.6c-0.5,0.1-1.1,0.2-1.7,0.4c0,0-0.1,0.1-0.3,0.1
			c-0.6,0-1.7-0.7,0.3-6.8C29,1.2,24.6,0,22.7,0L22.7,0z"/>
	</g>
	<g>
		<path class="st17" d="M5.3,25l2.6,12.4H2L2,25H5.3 M5.5,23H0l0,16.4h8.9c0,0,0,0,0,0c0.8,0,1.3-0.6,1.1-1.4L7.2,24.4
			C7,23.6,6.2,23,5.5,23L5.5,23z"/>
	</g>
</g>
</svg>
