<svg id="Layer_1" data-name="Layer 1" xmlns="http://www.w3.org/2000/svg" viewBox="0 0 56 56"><defs><style>.cls-1{fill:#00aced;}.cls-2{fill:none;}</style></defs><title>twittericon</title><path class="cls-1" d="M47,18.21a.79.79,0,0,0-.3.62l0,.85c0,12.71-9.68,27.37-27.37,27.37A27.12,27.12,0,0,1,4.56,42.71a17.16,17.16,0,0,0,2.29.15,19.32,19.32,0,0,0,10.3-3,.76.76,0,0,0-.26-1.38,9.67,9.67,0,0,1-7.08-6.46,9.06,9.06,0,0,0,1.82.17,9.89,9.89,0,0,0,2.52-.33,9.62,9.62,0,0,1-7.7-9.42v-.12a9.73,9.73,0,0,0,1.58.7.76.76,0,0,0,.82-1.22,9.62,9.62,0,0,1-2.33-6.27,9.5,9.5,0,0,1,.78-3.78.76.76,0,0,1,1.28-.18,27.28,27.28,0,0,0,18.09,9.09.76.76,0,0,0,.81-.85,10.75,10.75,0,0,1-.07-1.28,9.62,9.62,0,0,1,16.34-6.88.77.77,0,0,0,.7.21,19.34,19.34,0,0,0,3.77-1.23.76.76,0,0,1,1,1.06,9.2,9.2,0,0,1-1,1.37A.77.77,0,0,0,49,14.36l0,0a.77.77,0,0,1,.79,1.24A20.25,20.25,0,0,1,47,18.21Z"/><rect class="cls-2" width="56" height="56" rx="0.77" ry="0.77"/></svg>