<?xml version="1.0" encoding="utf-8"?>
<!-- Generator: Adobe Illustrator 21.0.2, SVG Export Plug-In . SVG Version: 6.00 Build 0)  -->
<svg version="1.1" id="Слой_1" xmlns="http://www.w3.org/2000/svg" xmlns:xlink="http://www.w3.org/1999/xlink" x="0px" y="0px"
	 viewBox="0 0 151.6 151.6" style="enable-background:new 0 0 151.6 151.6;" xml:space="preserve">
<style type="text/css">
	.st0{fill:#FFFFFF;}
	.st1{fill:#00B894;}
	.st2{fill:#0095B1;}
	.st3{fill:#006367;}
	.st4{fill:#B9D833;}
	.st5{fill:#008136;}
	.st6{fill:#005928;}
	.st7{fill:#83CC58;}
	.st8{fill:#008F3D;}
	.st9{fill:#004A1F;}
	.st10{fill:#52C241;}
	.st11{fill:#00863C;}
	.st12{fill:#00662E;}
	.st13{fill:#00461D;}
	.st14{opacity:0.2;}
	.st15{opacity:0.4;}
	.st16{fill:#00AC84;}
	.st17{fill:#A5CC2E;}
</style>
<g id="New_Symbol_8">
	<g>
		<path class="st0" d="M151.6,75.8c0-10.7-5.4-20.1-13.7-25.7c1.9-9.8-1-20.3-8.5-27.9c-5.9-5.9-13.7-9.1-22-9.1c-2,0-4,0.2-5.9,0.6
			C95.9,5.4,86.5,0,75.8,0C65.1,0,55.7,5.4,50.1,13.7c-1.9-0.4-3.9-0.6-5.9-0.6c-8.3,0-16.1,3.2-22,9.1c-7.6,7.6-10.4,18.1-8.5,27.9
			C5.4,55.7,0,65.1,0,75.8c0,10.7,5.4,20.1,13.7,25.7c-0.4,1.9-0.6,3.9-0.6,5.9c0,8.3,3.2,16.1,9.1,22c5.9,5.9,13.7,9.1,22,9.1
			c2,0,4-0.2,5.9-0.6c5.6,8.2,15,13.7,25.7,13.7c10.7,0,20.1-5.4,25.7-13.7c1.9,0.4,3.9,0.6,5.9,0.6c8.3,0,16.1-3.2,22-9.1
			c5.9-5.9,9.1-13.7,9.1-22c0-2-0.2-4-0.6-5.9C146.2,95.9,151.6,86.5,151.6,75.8z"/>
	</g>
	<g>
		<path class="st1" d="M75.8,36.1L86,25.9c3.9-3.9,8.6-6.3,13.5-7.5c-5-7.9-13.7-13.2-23.8-13.2c-10,0-18.8,5.3-23.8,13.2
			c5,1.1,9.7,3.6,13.5,7.5L75.8,36.1z"/>
		<path class="st1" d="M75.8,115.5l-10.3,10.2c-3.9,3.9-8.6,6.3-13.5,7.5c5,7.9,13.7,13.2,23.8,13.2c10,0,18.8-5.3,23.8-13.2
			c-5-1.1-9.7-3.6-13.5-7.5L75.8,115.5z"/>
		<path class="st2" d="M47.7,47.7V33.2c0-5.5,1.6-10.5,4.3-14.8c-9.1-2.1-19.1,0.4-26.2,7.5c-7.1,7.1-9.6,17-7.5,26.2
			c4.3-2.7,9.4-4.3,14.8-4.3H47.7z"/>
		<path class="st2" d="M103.9,103.8v14.5c0,5.5-1.6,10.5-4.3,14.8c2.1,0.5,4.2,0.8,6.3,0.8c7.2,0,14.4-2.7,19.8-8.2
			c7.1-7.1,9.6-17,7.5-26.1c-4.3,2.7-9.4,4.3-14.8,4.3H103.9z"/>
		<path class="st3" d="M47.7,47.7h16.4l11.6-11.6L65.5,25.9C61.7,22,57,19.5,52,18.4c-2.7,4.3-4.3,9.4-4.3,14.8V47.7z"/>
		<path class="st3" d="M103.9,103.8H87.4l-11.6,11.6L86,125.7c3.9,3.9,8.6,6.3,13.5,7.5c2.7-4.3,4.3-9.4,4.3-14.8V103.8z"/>
		<path class="st4" d="M146.4,75.8c0-10-5.3-18.8-13.2-23.8c-1.1,5-3.6,9.7-7.5,13.5l-10.2,10.3L125.7,86c3.9,3.9,6.3,8.6,7.5,13.5
			C141.1,94.6,146.4,85.8,146.4,75.8z"/>
		<path class="st5" d="M115.5,75.8l-11.6,11.6v16.4h14.5c5.5,0,10.5-1.6,14.8-4.3c-1.1-5-3.6-9.7-7.5-13.5L115.5,75.8z"/>
		<path class="st6" d="M95.9,95.3c-0.1,0.1-0.2,0.2-0.3,0.3c-0.2,0.2-0.4,0.3-0.6,0.5c0.1-0.1,0.3-0.3,0.5-0.4l-8.1,8.1h16.4V87.4
			l-8.1,8.1C95.8,95.5,95.9,95.4,95.9,95.3z"/>
		<path class="st4" d="M36.1,75.8L25.9,65.5C22,61.7,19.5,57,18.4,52C10.5,57,5.2,65.8,5.2,75.8c0,10,5.3,18.8,13.2,23.8
			c1.1-5,3.6-9.7,7.5-13.5L36.1,75.8z"/>
		<path class="st5" d="M36.1,75.8l11.6-11.6V47.7H33.2c-5.5,0-10.5,1.6-14.8,4.3c1.1,5,3.6,9.7,7.5,13.5L36.1,75.8z"/>
		<path class="st6" d="M55.9,56L55.9,56C55.9,56,56,56,55.9,56C56,55.9,56,55.9,55.9,56C56,55.9,56,55.9,55.9,56l8.3-8.3H47.7v16.4
			L55.9,56C55.9,56,55.9,56,55.9,56z"/>
		<path class="st7" d="M103.9,47.7h14.5c5.5,0,10.5,1.6,14.8,4.3c2.1-9.1-0.4-19.1-7.5-26.2c-7.1-7.1-17-9.6-26.2-7.5
			c2.7,4.3,4.3,9.4,4.3,14.8V47.7z"/>
		<path class="st8" d="M75.8,36.1l11.6,11.6h16.4V33.2c0-5.5-1.6-10.5-4.3-14.8c-5,1.1-9.7,3.6-13.5,7.5L75.8,36.1z"/>
		<path class="st9" d="M74.9,47.8c0.3,0,0.6,0,0.9,0c0.3,0,0.6,0,0.9,0c-0.2,0-0.5,0-0.7,0h11.5L75.8,36.1L64.2,47.7h11.5
			C75.4,47.7,75.2,47.8,74.9,47.8z"/>
		<path class="st10" d="M103.9,47.7v16.4l11.6,11.6l10.2-10.3c3.9-3.9,6.3-8.6,7.5-13.5c-4.3-2.7-9.4-4.3-14.8-4.3H103.9z"/>
		<polygon class="st11" points="103.9,47.7 87.4,47.7 103.9,64.2 		"/>
		<polygon class="st12" points="103.9,75.8 103.9,87.4 115.5,75.8 103.9,64.2 		"/>
		<path class="st13" d="M76.7,47.8c0.7,0,1.4,0,2.1,0.1c0.2,0,0.4,0.1,0.7,0.1c0.7,0.1,1.4,0.2,2.1,0.3c0.2,0,0.4,0.1,0.6,0.1
			c0.7,0.2,1.4,0.3,2.1,0.6c0.2,0.1,0.3,0.1,0.5,0.2c0.7,0.2,1.4,0.5,2.1,0.8c0.1,0.1,0.3,0.1,0.4,0.2c0.7,0.3,1.4,0.6,2,1
			c0.1,0.1,0.2,0.2,0.4,0.2c0.7,0.4,1.3,0.8,1.9,1.2c0.1,0.1,0.2,0.2,0.4,0.3c0.6,0.4,1.2,0.9,1.8,1.3c0.1,0.1,0.2,0.2,0.4,0.3
			c0.6,0.5,1.1,1,1.6,1.5c0.1,0.1,0.2,0.3,0.4,0.4c0.5,0.5,1,1,1.4,1.6c0.1,0.2,0.3,0.3,0.4,0.5c0.4,0.5,0.8,1.1,1.2,1.6
			c0.1,0.2,0.3,0.5,0.4,0.7c0.3,0.5,0.7,1.1,1,1.6c0.2,0.3,0.3,0.6,0.4,0.8c0.3,0.5,0.5,1.1,0.8,1.6c0.1,0.3,0.2,0.7,0.4,1
			c0.2,0.5,0.4,1,0.6,1.6c0.1,0.4,0.2,0.9,0.3,1.3c0.1,0.5,0.3,0.9,0.4,1.4c0.1,0.5,0.2,1.1,0.2,1.6c0.1,0.4,0.1,0.8,0.2,1.2
			c0.1,0.9,0.1,1.9,0.1,2.9V64.2L87.4,47.7H75.9C76.2,47.7,76.4,47.8,76.7,47.8z"/>
		<path class="st13" d="M103.7,78.7L103.7,78.7c0,0.4-0.1,0.7-0.2,1.1v0c-0.1,0.6-0.1,1.1-0.3,1.7c0,0,0,0,0,0
			c-0.1,0.4-0.2,0.8-0.3,1.2c-0.1,0.2-0.1,0.5-0.2,0.7c-0.1,0.2-0.1,0.5-0.2,0.7c0,0,0,0,0,0c-0.1,0.5-0.3,0.9-0.5,1.3
			c-0.1,0.3-0.2,0.6-0.3,0.8c0,0.1-0.1,0.3-0.1,0.4c0,0,0,0,0,0c-0.2,0.5-0.4,0.9-0.7,1.4c-0.2,0.4-0.3,0.7-0.5,1.1
			c-0.3,0.5-0.6,0.9-0.8,1.4c-0.2,0.3-0.4,0.6-0.6,0.9c-0.3,0.5-0.7,1-1.1,1.4c-0.2,0.2-0.3,0.4-0.5,0.6c0,0,0,0.1-0.1,0.1
			c0,0,0,0,0,0c-0.4,0.5-0.8,0.9-1.3,1.4c-0.1,0.1-0.2,0.2-0.3,0.3c-0.1,0.1-0.2,0.2-0.2,0.3l8.1-8.1V75.8
			C103.9,76.8,103.8,77.7,103.7,78.7z"/>
		<path class="st13" d="M56,55.9c0.1-0.1,0.1-0.1,0.2-0.2c0.2-0.2,0.5-0.4,0.7-0.7c0.2-0.1,0.3-0.3,0.5-0.4c0.2-0.2,0.3-0.3,0.5-0.5
			c0,0,0,0,0.1-0.1c0,0,0,0,0,0c0.1-0.1,0.2-0.1,0.3-0.2c0.3-0.2,0.6-0.4,0.8-0.6c0.1-0.1,0.3-0.2,0.4-0.3c0.2-0.1,0.3-0.3,0.5-0.4
			c0,0,0,0,0.1,0c0,0,0,0,0,0c0.1-0.1,0.3-0.2,0.4-0.2c0.3-0.2,0.6-0.4,0.9-0.6c0.1-0.1,0.3-0.2,0.4-0.2c0.2-0.1,0.3-0.2,0.5-0.3
			c0,0,0.1,0,0.1,0c0,0,0,0,0,0c0.2-0.1,0.5-0.2,0.7-0.3c0.3-0.1,0.6-0.3,0.9-0.4c0.1,0,0.2-0.1,0.3-0.1c0.2-0.1,0.3-0.2,0.5-0.2
			c0,0,0.1,0,0.1,0c0,0,0,0,0,0c0.3-0.1,0.5-0.2,0.8-0.3c0.3-0.1,0.6-0.2,0.9-0.3c0.1,0,0.1,0,0.2-0.1c0.2-0.1,0.4-0.1,0.5-0.2
			c0,0,0.1,0,0.1,0c0,0,0,0,0,0c0.3-0.1,0.7-0.2,1-0.2c0.3-0.1,0.7-0.2,1-0.3c0.2,0,0.4-0.1,0.6-0.1c0,0,0.1,0,0.1,0c0,0,0,0,0,0
			c0.5-0.1,1-0.2,1.5-0.2c0.2,0,0.3-0.1,0.5-0.1c0.2,0,0.4-0.1,0.7-0.1c0,0,0.1,0,0.1,0h0c0.7-0.1,1.3-0.1,2-0.1c0.2,0,0.5,0,0.7,0
			H64.2L56,55.9C56,55.9,56,55.9,56,55.9z"/>
		<path class="st7" d="M47.7,103.8H33.2c-5.5,0-10.5-1.6-14.8-4.3c-2.1,9.1,0.4,19.1,7.5,26.1c5.5,5.5,12.7,8.2,19.8,8.2
			c2.1,0,4.2-0.3,6.3-0.8c-2.7-4.3-4.3-9.4-4.3-14.8V103.8z"/>
		<path class="st8" d="M75.8,115.5l-11.6-11.6H47.7v14.5c0,5.5,1.6,10.5,4.3,14.8c5-1.1,9.7-3.6,13.5-7.5L75.8,115.5z"/>
		<path class="st9" d="M76.7,103.8c-0.3,0-0.6,0-0.9,0c-0.3,0-0.6,0-0.9,0c0.2,0,0.5,0,0.7,0H64.2l11.6,11.6l11.6-11.6H75.9
			C76.2,103.8,76.4,103.8,76.7,103.8z"/>
		<path class="st13" d="M95.1,96.1c-0.3,0.3-0.6,0.6-0.9,0.8c-0.2,0.1-0.3,0.3-0.5,0.5c0,0-0.1,0.1-0.1,0.1
			c-0.1,0.1-0.3,0.2-0.5,0.3c-0.4,0.3-0.7,0.6-1.1,0.8c-0.2,0.1-0.3,0.3-0.5,0.4c0,0-0.1,0.1-0.1,0.1c-0.2,0.1-0.4,0.2-0.5,0.3
			c-0.4,0.3-0.8,0.5-1.2,0.7c-0.2,0.1-0.3,0.2-0.5,0.3c0,0-0.1,0-0.1,0.1c-0.2,0.1-0.4,0.2-0.6,0.3c-0.4,0.2-0.8,0.4-1.2,0.6
			c-0.2,0.1-0.3,0.2-0.5,0.2c0,0-0.1,0-0.1,0.1c-0.3,0.1-0.5,0.2-0.8,0.3c-0.4,0.1-0.8,0.3-1.2,0.4c-0.2,0.1-0.3,0.1-0.5,0.2
			c0,0-0.1,0-0.1,0c-0.3,0.1-0.7,0.2-1,0.3c-0.3,0.1-0.7,0.2-1,0.3c-0.2,0-0.4,0.1-0.6,0.1c0,0-0.1,0-0.1,0
			c-0.4,0.1-0.9,0.1-1.4,0.2c-0.2,0-0.4,0.1-0.6,0.1c-0.2,0-0.4,0.1-0.7,0.1c0,0-0.1,0-0.1,0c-0.7,0.1-1.3,0.1-2,0.1
			c-0.2,0-0.5,0-0.7,0h11.5l8.1-8.1C95.4,95.8,95.3,96,95.1,96.1z"/>
		<path class="st10" d="M47.7,103.8V87.4L36.1,75.8L25.9,86c-3.9,3.9-6.3,8.6-7.5,13.5c4.3,2.7,9.4,4.3,14.8,4.3H47.7z"/>
		<path class="st11" d="M56.7,96.3c-0.1-0.1-0.1-0.1-0.2-0.2c-0.2-0.2-0.3-0.3-0.5-0.4c0,0,0-0.1-0.1-0.1c-0.2-0.2-0.4-0.4-0.5-0.6
			c0.2,0.2,0.3,0.4,0.5,0.6l-8.1-8.1v16.4h16.4l-8.1-8.1C56.3,95.9,56.5,96.1,56.7,96.3z"/>
		<path class="st12" d="M47.8,76.4c0-0.2,0-0.4,0-0.6c0-0.2,0-0.4,0-0.6c0,0.2,0,0.3,0,0.5V64.2L36.1,75.8l11.6,11.6V75.9
			C47.7,76.1,47.8,76.2,47.8,76.4z"/>
		<path class="st13" d="M47.8,75.2c0-0.8,0-1.5,0.1-2.3v0c0,0,0-0.1,0-0.1c0-0.1,0-0.3,0.1-0.4c0-0.2,0.1-0.5,0.1-0.7
			c0.1-0.5,0.1-1.1,0.2-1.6v0c0,0,0-0.1,0-0.1c0-0.1,0.1-0.2,0.1-0.3c0.1-0.3,0.2-0.6,0.2-0.9c0.1-0.5,0.2-0.9,0.4-1.4c0,0,0,0,0,0
			c0,0,0-0.1,0-0.1c0-0.1,0.1-0.2,0.1-0.3c0.1-0.3,0.2-0.7,0.4-1c0.1-0.4,0.3-0.8,0.4-1.2c0,0,0,0,0,0c0,0,0-0.1,0-0.1
			c0-0.1,0.1-0.2,0.1-0.3c0.1-0.3,0.3-0.7,0.5-1c0.2-0.4,0.3-0.7,0.5-1.1c0,0,0,0,0,0c0,0,0,0,0-0.1c0.1-0.1,0.1-0.2,0.2-0.4
			c0.2-0.3,0.4-0.7,0.6-1c0.2-0.3,0.4-0.6,0.5-0.9c0,0,0,0,0,0c0,0,0,0,0-0.1c0.1-0.1,0.2-0.2,0.3-0.4c0.2-0.3,0.5-0.7,0.8-1
			c0.2-0.2,0.3-0.5,0.5-0.7c0,0,0,0,0,0c0,0,0,0,0,0c0,0,0,0,0-0.1c0.1-0.1,0.2-0.2,0.3-0.4c0.3-0.3,0.6-0.6,0.9-1
			c0.2-0.2,0.3-0.4,0.5-0.6c0,0,0,0,0,0l-8.2,8.2v11.5C47.7,75.5,47.8,75.4,47.8,75.2z"/>
		<path class="st13" d="M55.4,95c0,0-0.1-0.1-0.1-0.1c-0.2-0.3-0.5-0.5-0.7-0.8c-0.1-0.1-0.2-0.3-0.4-0.4c0,0,0,0-0.1-0.1
			c0,0,0,0,0,0c-0.1-0.1-0.1-0.2-0.2-0.3c-0.2-0.2-0.3-0.4-0.4-0.6c-0.2-0.3-0.4-0.5-0.6-0.8c-0.1-0.1-0.2-0.2-0.3-0.4
			c0,0,0,0,0-0.1c0,0,0,0,0-0.1c0,0,0-0.1-0.1-0.1c-0.2-0.3-0.4-0.7-0.6-1c-0.2-0.3-0.3-0.5-0.5-0.8c-0.1-0.1-0.1-0.2-0.2-0.3
			c0,0,0-0.1,0-0.1c-0.2-0.4-0.4-0.9-0.6-1.3c-0.1-0.3-0.3-0.5-0.4-0.8c0-0.1-0.1-0.2-0.1-0.3c0,0,0-0.1,0-0.1
			c-0.2-0.5-0.3-0.9-0.5-1.4c-0.1-0.3-0.2-0.5-0.3-0.8c0-0.1-0.1-0.2-0.1-0.3c0,0,0-0.1,0-0.1c0,0,0,0,0,0c0,0,0,0,0,0
			c-0.1-0.5-0.3-1-0.4-1.5c-0.1-0.2-0.1-0.5-0.2-0.7c0-0.1-0.1-0.2-0.1-0.3c0,0,0-0.1,0-0.1c0,0,0,0,0,0c-0.1-0.3-0.1-0.6-0.1-0.8
			c0-0.3-0.1-0.6-0.1-0.9c0-0.2-0.1-0.4-0.1-0.6c0-0.1,0-0.3-0.1-0.4c0,0,0-0.1,0-0.1l0,0c-0.1-0.7-0.1-1.5-0.1-2.3
			c0-0.2,0-0.3,0-0.5v11.5l8.1,8.1C55.7,95.4,55.5,95.2,55.4,95z"/>
		<path class="st13" d="M74.9,103.8c-0.7,0-1.3,0-2-0.1c0,0,0,0,0,0c0,0-0.1,0-0.1,0c-0.2,0-0.4-0.1-0.7-0.1c-0.2,0-0.3,0-0.5-0.1
			c0,0,0,0,0,0c-0.5-0.1-1-0.1-1.5-0.2c0,0,0,0,0,0c0,0-0.1,0-0.1,0c-0.2,0-0.4-0.1-0.6-0.2c-0.2-0.1-0.4-0.1-0.6-0.2
			c-0.1,0-0.3-0.1-0.4-0.1c-0.3-0.1-0.6-0.1-0.9-0.2c0,0,0,0,0,0c0,0-0.1,0-0.1,0c-0.2-0.1-0.4-0.1-0.6-0.2
			c-0.3-0.1-0.5-0.2-0.8-0.3c-0.1,0-0.3-0.1-0.4-0.1c-0.2-0.1-0.5-0.2-0.7-0.3c0,0,0,0,0,0c0,0-0.1,0-0.1,0
			c-0.2-0.1-0.4-0.2-0.6-0.3c-0.3-0.1-0.5-0.2-0.8-0.4c-0.1-0.1-0.2-0.1-0.3-0.2c-0.2-0.1-0.4-0.2-0.6-0.3c0,0,0,0,0,0
			c0,0-0.1,0-0.1-0.1c-0.2-0.1-0.4-0.2-0.6-0.4c-0.3-0.2-0.5-0.3-0.8-0.5c-0.1,0-0.1-0.1-0.2-0.1c-0.2-0.1-0.4-0.2-0.6-0.4
			c0,0,0,0,0,0c0,0-0.1,0-0.1-0.1c-0.2-0.2-0.4-0.3-0.6-0.5c-0.3-0.2-0.5-0.4-0.8-0.6c-0.2-0.2-0.4-0.3-0.6-0.5c0,0,0,0,0,0
			c0,0,0,0-0.1-0.1c-0.2-0.2-0.4-0.4-0.7-0.6c-0.2-0.2-0.4-0.3-0.6-0.5c-0.2-0.2-0.4-0.4-0.6-0.6l8.1,8.1h11.5
			C75.4,103.8,75.2,103.8,74.9,103.8z"/>
	</g>
</g>
</svg>
